<?xml version="1.0" encoding="UTF-8"?>
<svg width="34px" height="34px" viewBox="0 0 34 34" version="1.1" xmlns="http://www.w3.org/2000/svg" xmlns:xlink="http://www.w3.org/1999/xlink">
    <!-- Generator: Sketch 43.2 (39069) - http://www.bohemiancoding.com/sketch -->
    <title>alert</title>
    <desc>Created with Sketch.</desc>
    <defs></defs>
    <g id="Homepage-R3" stroke="none" stroke-width="1" fill="none" fill-rule="evenodd">
        <g id="Widener---Homepage-Copy-7" transform="translate(-72.000000, -34.000000)" fill="">
            <path d="M105.601562,62.8867188 C106.149414,63.9824219 106.116211,65.2773438 105.485352,66.3066406 C104.821289,67.3691406 103.675781,68 102.463867,68 L75.5361328,68 C74.3242188,68 73.1787109,67.3691406 72.5146484,66.3066406 C71.8837891,65.2773438 71.8505859,63.9824219 72.3486328,62.8867188 L85.8125,35.9755859 C86.4433594,34.7470703 87.6552734,34 89,34 C90.3447266,34 91.5566406,34.7470703 92.1542969,35.9755859 L105.601562,62.8867188 Z M86.875,43.2138672 L86.875,55.25 L91.125,55.25 L91.125,43.2138672 L86.875,43.2138672 Z M89,64.4638672 C90.5771484,64.4638672 91.8388672,63.2021484 91.8388672,61.625 C91.8388672,60.0478516 90.5771484,58.7861328 89,58.7861328 C87.4228516,58.7861328 86.1611328,60.0478516 86.1611328,61.625 C86.1611328,63.2021484 87.4228516,64.4638672 89,64.4638672 Z" id="alert"></path>
        </g>
    </g>
</svg>
