<?xml version="1.0" encoding="UTF-8"?>
<svg width="15px" height="13px" viewBox="0 0 15 13" version="1.1" xmlns="http://www.w3.org/2000/svg" xmlns:xlink="http://www.w3.org/1999/xlink">
    <!-- Generator: Sketch 43.2 (39069) - http://www.bohemiancoding.com/sketch -->
    <title>out</title>
    <desc>Created with Sketch.</desc>
    <defs></defs>
    <g id="Undergrad-Admissions-R2" stroke="none" stroke-width="1" fill="none" fill-rule="evenodd">
        <g id="Undergraduate-Admissions-Copy-4" transform="translate(-785.000000, -4842.000000)" fill="">
            <g id="Group-4" transform="translate(-1.000000, 4681.000000)">
                <path d="M796.3125,170.83252 L798.1875,169.550781 L798.1875,171.564941 C798.1875,172.590332 797.337891,173.439941 796.3125,173.439941 L787.875,173.439941 C786.849609,173.439941 786,172.590332 786,171.564941 L786,164.064941 C786,163.039551 786.849609,162.189941 787.875,162.189941 L793.185059,162.189941 L793.185059,162.95166 C792.057129,163.127441 791.10498,163.486328 790.306641,164.064941 L787.875,164.064941 L787.875,171.564941 L796.3125,171.564941 L796.3125,170.83252 Z M800.86084,165.67627 C800.94873,165.749512 801,165.830078 801,165.939941 C801,166.04248 800.94873,166.14502 800.86084,166.196289 L794.920898,170.26123 C794.869629,170.297852 794.818359,170.3125 794.752441,170.3125 C794.701172,170.3125 794.642578,170.297852 794.613281,170.275879 C794.503418,170.224609 794.4375,170.12207 794.4375,169.997559 L794.4375,167.792969 C790.621582,167.880859 789.713379,169.221191 789.69873,169.221191 C789.647461,169.32373 789.544922,169.375 789.435059,169.375 L789.369141,169.375 C789.22998,169.338379 789.14209,169.221191 789.127441,169.082031 C789.127441,169.008789 789.00293,167.097168 790.372559,165.661621 C791.29541,164.672852 792.665039,164.130859 794.4375,164.07959 L794.4375,161.875 C794.4375,161.750488 794.503418,161.647949 794.613281,161.59668 C794.701172,161.54541 794.840332,161.54541 794.920898,161.611328 L800.86084,165.67627 Z" id="out"></path>
            </g>
        </g>
    </g>
</svg>