<?xml version="1.0" encoding="UTF-8"?>
<svg width="18px" height="18px" viewBox="0 0 18 18" version="1.1" xmlns="http://www.w3.org/2000/svg" xmlns:xlink="http://www.w3.org/1999/xlink">
    <!-- Generator: Sketch 43.2 (39069) - http://www.bohemiancoding.com/sketch -->
    <title>facebook</title>
    <desc>Created with Sketch.</desc>
    <defs></defs>
    <g id="Undergrad-Admissions-R2" stroke="none" stroke-width="1" fill="none" fill-rule="evenodd">
        <g id="Undergraduate-Admissions-Copy-4" transform="translate(-938.000000, -5042.000000)" fill="">
            <g id="Footer" transform="translate(-20.000000, 4936.000000)">
                <path d="M976,107.125 C976,106.509766 975.490234,106 974.875,106 L959.125,106 C958.509766,106 958,106.509766 958,107.125 L958,122.875 C958,123.490234 958.509766,124 959.125,124 L967.624023,124 L967.624023,117.003906 L965.374023,117.003906 L965.374023,114.411133 L967.624023,114.411133 L967.624023,112.169922 C967.624023,110.12207 968.87207,108.750977 971.341797,108.750977 C972.431641,108.750977 973.1875,108.874023 973.1875,108.874023 L973.1875,111.211914 L971.5,111.211914 C970.75293,111.211914 970.375,111.633789 970.375,112.37207 L970.375,114.411133 L973.00293,114.411133 L972.625,117.003906 L970.375,117.003906 L970.375,124 L974.875,124 C975.490234,124 976,123.490234 976,122.875 L976,107.125 Z" id="facebook"></path>
            </g>
        </g>
    </g>
</svg>