<?xml version="1.0" encoding="UTF-8"?>
<svg width="13px" height="13px" viewBox="0 0 13 13" version="1.1" xmlns="http://www.w3.org/2000/svg" xmlns:xlink="http://www.w3.org/1999/xlink">
    <!-- Generator: Sketch 43.2 (39069) - http://www.bohemiancoding.com/sketch -->
    <title>fax</title>
    <desc>Created with Sketch.</desc>
    <defs></defs>
    <g id="Undergrad-Admissions-R2" stroke="none" stroke-width="1" fill="none" fill-rule="evenodd">
        <g id="Undergraduate-Admissions-Copy-4" transform="translate(-785.000000, -4783.000000)" fill="">
            <g id="Group-4" transform="translate(-1.000000, 4681.000000)">
                <path d="M799,114.1875 C799,114.638184 798.638184,115 798.1875,115 L786.8125,115 C786.361816,115 786,114.638184 786,114.1875 L786,107.6875 C786,107.236816 786.361816,106.875 786.8125,106.875 L788.164551,106.875 L788.164551,109.585449 L796.835449,109.585449 L796.835449,106.875 L798.1875,106.875 C798.638184,106.875 799,107.236816 799,107.6875 L799,114.1875 Z M797.375,112.5625 C797.375,112.111816 797.013184,111.75 796.5625,111.75 C796.111816,111.75 795.75,112.111816 795.75,112.5625 C795.75,113.013184 796.111816,113.375 796.5625,113.375 C797.013184,113.375 797.375,113.013184 797.375,112.5625 Z M789.25,108.5 L789.25,102.272949 C789.25,102.120605 789.370605,102 789.522949,102 L795.477051,102 C795.629395,102 795.75,102.120605 795.75,102.272949 L795.75,108.5 L789.25,108.5 Z" id="fax"></path>
            </g>
        </g>
    </g>
</svg>