<?xml version="1.0" encoding="UTF-8"?>
<svg width="14px" height="14px" viewBox="0 0 14 14" version="1.1" xmlns="http://www.w3.org/2000/svg" xmlns:xlink="http://www.w3.org/1999/xlink">
    <!-- Generator: Sketch 43.2 (39069) - http://www.bohemiancoding.com/sketch -->
    <title>grid</title>
    <desc>Created with Sketch.</desc>
    <defs></defs>
    <g id="Admissions-R2" stroke="none" stroke-width="1" fill="none" fill-rule="evenodd">
        <g id="Admissions-Copy-3" transform="translate(-1223.000000, -4031.000000)" fill="">
            <path d="M1223,4031.29395 L1223,4034.20605 C1223,4034.37012 1223.12988,4034.5 1223.29395,4034.5 L1226.20605,4034.5 C1226.37012,4034.5 1226.5,4034.37012 1226.5,4034.20605 L1226.5,4031.29395 C1226.5,4031.12988 1226.37012,4031 1226.20605,4031 L1223.29395,4031 C1223.12988,4031 1223,4031.12988 1223,4031.29395 Z M1228.25,4031.29395 L1228.25,4034.20605 C1228.25,4034.37012 1228.37988,4034.5 1228.54395,4034.5 L1231.45605,4034.5 C1231.62012,4034.5 1231.75,4034.37012 1231.75,4034.20605 L1231.75,4031.29395 C1231.75,4031.12988 1231.62012,4031 1231.45605,4031 L1228.54395,4031 C1228.37988,4031 1228.25,4031.12988 1228.25,4031.29395 Z M1233.5,4031.29395 L1233.5,4034.20605 C1233.5,4034.37012 1233.62988,4034.5 1233.79395,4034.5 L1236.70605,4034.5 C1236.87012,4034.5 1237,4034.37012 1237,4034.20605 L1237,4031.29395 C1237,4031.12988 1236.87012,4031 1236.70605,4031 L1233.79395,4031 C1233.62988,4031 1233.5,4031.12988 1233.5,4031.29395 Z M1223,4036.54395 L1223,4039.45605 C1223,4039.62012 1223.12988,4039.75 1223.29395,4039.75 L1226.20605,4039.75 C1226.37012,4039.75 1226.5,4039.62012 1226.5,4039.45605 L1226.5,4036.54395 C1226.5,4036.37988 1226.37012,4036.25 1226.20605,4036.25 L1223.29395,4036.25 C1223.12988,4036.25 1223,4036.37988 1223,4036.54395 Z M1228.25,4036.54395 L1228.25,4039.45605 C1228.25,4039.62012 1228.37988,4039.75 1228.54395,4039.75 L1231.45605,4039.75 C1231.62012,4039.75 1231.75,4039.62012 1231.75,4039.45605 L1231.75,4036.54395 C1231.75,4036.37988 1231.62012,4036.25 1231.45605,4036.25 L1228.54395,4036.25 C1228.37988,4036.25 1228.25,4036.37988 1228.25,4036.54395 Z M1233.5,4036.54395 L1233.5,4039.45605 C1233.5,4039.62012 1233.62988,4039.75 1233.79395,4039.75 L1236.70605,4039.75 C1236.87012,4039.75 1237,4039.62012 1237,4039.45605 L1237,4036.54395 C1237,4036.37988 1236.87012,4036.25 1236.70605,4036.25 L1233.79395,4036.25 C1233.62988,4036.25 1233.5,4036.37988 1233.5,4036.54395 Z M1223,4041.79395 L1223,4044.70605 C1223,4044.87012 1223.12988,4045 1223.29395,4045 L1226.20605,4045 C1226.37012,4045 1226.5,4044.87012 1226.5,4044.70605 L1226.5,4041.79395 C1226.5,4041.62988 1226.37012,4041.5 1226.20605,4041.5 L1223.29395,4041.5 C1223.12988,4041.5 1223,4041.62988 1223,4041.79395 Z M1228.25,4041.79395 L1228.25,4044.70605 C1228.25,4044.87012 1228.37988,4045 1228.54395,4045 L1231.45605,4045 C1231.62012,4045 1231.75,4044.87012 1231.75,4044.70605 L1231.75,4041.79395 C1231.75,4041.62988 1231.62012,4041.5 1231.45605,4041.5 L1228.54395,4041.5 C1228.37988,4041.5 1228.25,4041.62988 1228.25,4041.79395 Z M1233.5,4041.79395 L1233.5,4044.70605 C1233.5,4044.87012 1233.62988,4045 1233.79395,4045 L1236.70605,4045 C1236.87012,4045 1237,4044.87012 1237,4044.70605 L1237,4041.79395 C1237,4041.62988 1236.87012,4041.5 1236.70605,4041.5 L1233.79395,4041.5 C1233.62988,4041.5 1233.5,4041.62988 1233.5,4041.79395 Z" id="grid"></path>
        </g>
    </g>
</svg>