<?xml version="1.0" encoding="UTF-8"?>
<svg width="18px" height="18px" viewBox="0 0 18 18" version="1.1" xmlns="http://www.w3.org/2000/svg" xmlns:xlink="http://www.w3.org/1999/xlink">
    <!-- Generator: Sketch 43.2 (39069) - http://www.bohemiancoding.com/sketch -->
    <title>instagram</title>
    <desc>Created with Sketch.</desc>
    <defs></defs>
    <g id="Undergrad-Admissions-R2" stroke="none" stroke-width="1" fill="none" fill-rule="evenodd">
        <g id="Undergraduate-Admissions-Copy-4" transform="translate(-1143.000000, -5052.000000)" fill="">
            <g id="Footer" transform="translate(-20.000000, 4936.000000)">
                <path d="M1178.37207,116 C1179.82227,116 1181,117.177734 1181,118.62793 L1181,131.37207 C1181,132.822266 1179.82227,134 1178.37207,134 L1165.62793,134 C1164.17773,134 1163,132.822266 1163,131.37207 L1163,118.62793 C1163,117.177734 1164.17773,116 1165.62793,116 L1178.37207,116 Z M1172,121.625 C1170.13672,121.625 1168.625,123.136719 1168.625,125 C1168.625,126.863281 1170.13672,128.375 1172,128.375 C1173.86328,128.375 1175.375,126.863281 1175.375,125 C1175.375,123.136719 1173.86328,121.625 1172,121.625 Z M1179.12793,131.75 L1179.12793,123.875 L1177.13281,123.875 C1177.21191,124.235352 1177.24707,124.613281 1177.24707,125 C1177.24707,127.900391 1174.90039,130.24707 1172,130.24707 C1169.09961,130.24707 1166.75293,127.900391 1166.75293,125 C1166.75293,124.613281 1166.78809,124.235352 1166.86719,123.875 L1164.87207,123.875 L1164.87207,131.75 C1164.87207,131.960938 1165.03906,132.12793 1165.25,132.12793 L1178.75,132.12793 C1178.96094,132.12793 1179.12793,131.960938 1179.12793,131.75 Z M1179.12793,120.5 L1179.12793,118.25 C1179.12793,118.039062 1178.96094,117.87207 1178.75,117.87207 L1176.5,117.87207 C1176.28906,117.87207 1176.12207,118.039062 1176.12207,118.25 L1176.12207,120.5 C1176.12207,120.710938 1176.28906,120.87793 1176.5,120.87793 L1178.75,120.87793 C1178.96094,120.87793 1179.12793,120.710938 1179.12793,120.5 Z" id="instagram"></path>
            </g>
        </g>
    </g>
</svg>