<?xml version="1.0" encoding="UTF-8"?>
<svg width="18px" height="18px" viewBox="0 0 18 18" version="1.1" xmlns="http://www.w3.org/2000/svg" xmlns:xlink="http://www.w3.org/1999/xlink">
    <!-- Generator: Sketch 43.2 (39069) - http://www.bohemiancoding.com/sketch -->
    <title>linkedin</title>
    <desc>Created with Sketch.</desc>
    <defs></defs>
    <g id="Undergrad-Admissions-R2" stroke="none" stroke-width="1" fill="none" fill-rule="evenodd">
        <g id="Undergraduate-Admissions-Copy-4" transform="translate(-939.000000, -5202.000000)" fill="">
            <g id="Footer" transform="translate(-20.000000, 4936.000000)">
                <path d="M959.37793,272.37207 L959.37793,284 L963.12207,284 L963.12207,272.37207 L959.37793,272.37207 Z M969.125,277.25 C969.125,275.74707 970.083008,275 971.208008,275 C972.333008,275 973.24707,275.74707 973.24707,277.62793 L973.24707,284 L977,284 L977,277.25 C977,273.875 975.12793,272.00293 972.5,272.00293 C970.99707,272.00293 969.87207,272.855469 969.125,273.980469 L969.001953,272.37207 L965.310547,272.37207 C965.310547,272.767578 965.37207,275 965.37207,275 L965.37207,284 L969.125,284 L969.125,277.25 Z M961.232422,270.5 C962.621094,270.5 963.5,269.585938 963.5,268.43457 C963.482422,267.274414 962.621094,266.37793 961.267578,266.37793 C959.896484,266.37793 959,267.274414 959,268.43457 C959,269.585938 959.878906,270.5 961.206055,270.5 L961.232422,270.5 Z" id="linkedin"></path>
            </g>
        </g>
    </g>
</svg>