<?xml version="1.0" encoding="UTF-8"?>
<svg width="17px" height="17px" viewBox="0 0 17 17" version="1.1" xmlns="http://www.w3.org/2000/svg" xmlns:xlink="http://www.w3.org/1999/xlink">
    <!-- Generator: Sketch 44.1 (41455) - http://www.bohemiancoding.com/sketch -->
    <title>LINK</title>
    <desc>Created with Sketch.</desc>
    <defs></defs>
    <g id="Featured-Stories-(Change-Order)" stroke="none" stroke-width="1" fill="" fill-rule="evenodd">
        <g id="Featured-Stories-(Round-2)-Copy" transform="translate(-1200.000000, -242.000000)" fill="">
            <path d="M1215.63867,249.869141 L1213.23975,252.268066 C1213.32275,251.363281 1213.20654,250.483398 1212.89111,249.636719 L1214.14453,248.358398 C1215.10742,247.387207 1215.10742,245.818359 1214.14453,244.855469 C1213.18164,243.892578 1211.61279,243.892578 1210.6416,244.855469 L1207.98535,247.486816 C1207.02246,248.474609 1207.02246,250.026855 1207.98535,251.014648 C1208.42529,251.421387 1208.42529,252.09375 1207.98535,252.508789 C1207.57861,252.923828 1206.90625,252.923828 1206.49121,252.508789 C1204.70654,250.699219 1204.70654,247.785645 1206.49121,245.992676 L1209.13086,243.361328 C1210.94043,241.543457 1213.854,241.543457 1215.63867,243.361328 C1217.45654,245.145996 1217.45654,248.05957 1215.63867,249.869141 Z M1210.50879,255.007324 L1207.85254,257.663574 C1206.05957,259.456543 1203.146,259.456543 1201.33643,257.663574 C1199.54346,255.854004 1199.54346,252.94043 1201.33643,251.147461 L1203.76025,248.731934 C1203.67725,249.636719 1203.79346,250.541504 1204.10889,251.388184 L1202.85547,252.641602 C1201.89258,253.612793 1201.89258,255.181641 1202.85547,256.144531 C1203.81836,257.107422 1205.38721,257.107422 1206.3584,256.144531 L1208.98975,253.513184 C1209.97754,252.550293 1209.97754,250.973145 1208.98975,250.010254 C1208.57471,249.595215 1208.57471,248.90625 1208.98975,248.491211 C1209.40479,248.076172 1210.09375,248.076172 1210.50879,248.491211 C1212.29346,250.300781 1212.29346,253.214355 1210.50879,255.007324 Z" id="LINK"></path>
        </g>
    </g>
</svg>
