<?xml version="1.0" encoding="UTF-8"?>
<svg width="9px" height="13px" viewBox="0 0 9 13" version="1.1" xmlns="http://www.w3.org/2000/svg" xmlns:xlink="http://www.w3.org/1999/xlink">
    <!-- Generator: Sketch 43.2 (39069) - http://www.bohemiancoding.com/sketch -->
    <title>location</title>
    <desc>Created with Sketch.</desc>
    <defs></defs>
    <g id="Undergrad-Admissions-R2" stroke="none" stroke-width="1" fill="none" fill-rule="evenodd">
        <g id="Undergraduate-Admissions-Copy-4" transform="translate(-479.000000, -4752.000000)" fill="">
            <g id="Group-4" transform="translate(-1.000000, 4681.000000)">
                <path d="M484.5,71 C486.893066,71 488.835449,72.9423828 488.835449,75.3354492 C488.835449,76.1035156 488.619629,76.8398438 488.276855,77.4555664 L484.741211,83.8666992 C484.696777,83.9428711 484.588867,84 484.5,84 C484.39209,84 484.303223,83.9428711 484.258789,83.8666992 L480.723145,77.4555664 C480.361328,76.8398438 480.164551,76.1035156 480.164551,75.3354492 C480.164551,72.9423828 482.106934,71 484.5,71 Z M484.5,76.9604492 C485.401367,76.9604492 486.125,76.2368164 486.125,75.3354492 C486.125,74.4277344 485.401367,73.7104492 484.5,73.7104492 C483.598633,73.7104492 482.875,74.4277344 482.875,75.3354492 C482.875,76.2368164 483.598633,76.9604492 484.5,76.9604492 Z" id="location"></path>
            </g>
        </g>
    </g>
</svg>