<?xml version="1.0" encoding="UTF-8"?>
<svg width="33px" height="40px" viewBox="0 0 33 40" version="1.1" xmlns="http://www.w3.org/2000/svg" xmlns:xlink="http://www.w3.org/1999/xlink">
    <!-- Generator: Sketch 43.2 (39069) - http://www.bohemiancoding.com/sketch -->
    <title>Group 47</title>
    <desc>Created with Sketch.</desc>
    <defs></defs>
    <g id="Homepage-R3" stroke="none" stroke-width="1" fill="" fill-rule="evenodd">
        <g id="Widener---Homepage-Copy-9" transform="translate(-74.000000, -26.000000)">
            <g id="Group-9" transform="translate(74.000000, 22.000000)">
                <g id="Group-47" transform="translate(0.000000, 4.196429)">
                    <path d="M16.211412,39.6930946 C8.543052,35.2045946 0.000252,30.0110946 0.000252,22.3811482 L0.000252,11.8137018 L0.000252,0.645326786 L32.421732,0.645326786 L32.421732,22.3811482 C32.421732,30.0110946 23.878092,35.2045946 16.211412,39.6930946 Z" id="Fill-37" fill=""></path>
                    <path d="M16.211412,36.9441821 C22.875132,33.0431821 30.298212,28.5311821 30.298212,21.8991464 L30.298212,2.7542 L2.122932,2.7542 L2.122932,12.7156821 L2.122932,21.8991464 C2.122932,28.5311821 9.547692,33.0431821 16.211412,36.9441821" id="Fill-39" fill="#fff"></path>
                    <polygon id="Fill-41" fill="" points="7.99764 11.8658214 24.42552 11.8658214 24.42552 9.74998214 7.99764 9.74998214"></polygon>
                    <path d="M6.732264,23.4196804 C6.182904,23.4196804 5.306784,23.4196804 4.912824,23.4725554 C4.834704,23.4977339 4.873344,23.2249661 4.912824,23.2249661 C5.725104,23.1318054 6.078744,23.1066268 6.078744,22.0197518 L6.078744,18.7247161 C6.078744,17.6386804 5.725104,17.5983946 4.912824,17.5077518 C4.873344,17.5077518 4.834704,17.2458946 4.912824,17.2727518 C5.306784,17.3247875 6.182904,17.3247875 6.732264,17.3247875 C7.126224,17.3247875 7.989744,17.3130375 8.265264,17.2727518 C8.342544,17.2458946 8.330784,17.5077518 8.289624,17.5077518 C7.438704,17.5866446 7.137984,17.7033054 7.137984,18.7247161 L7.137984,22.0197518 C7.137984,23.0411625 7.438704,23.1452339 8.289624,23.2249661 C8.330784,23.2249661 8.342544,23.4977339 8.265264,23.4725554 C7.989744,23.4331089 7.126224,23.4196804 6.732264,23.4196804" id="Fill-43" fill=""></path>
                    <path d="M11.55042,17.2168554 C11.55042,18.1719625 12.37446,18.7082661 13.2657,19.2454089 C13.9587,18.8140161 14.35182,18.1988196 14.35182,17.4409446 C14.35182,16.5110161 13.73694,15.8580518 12.89778,15.8580518 C12.08802,15.8580518 11.55042,16.4069446 11.55042,17.2168554 M11.1573,22.2273911 C11.1573,23.4040696 12.0477,23.9798196 12.8457,23.9798196 C13.93266,23.9798196 14.56182,23.2999982 14.56182,22.4237839 C14.56182,21.2991411 13.55382,20.7351411 12.57102,20.1476411 C11.64114,20.6050518 11.1573,21.2202482 11.1573,22.2273911 M10.1493,22.2273911 C10.1493,21.2596946 10.8969,20.4212482 12.15186,19.8983732 C11.31522,19.3620696 10.60794,18.7745696 10.60794,17.7926054 C10.60794,16.4203732 11.72094,15.4644268 13.13466,15.4644268 C14.31318,15.4644268 15.28086,16.3011946 15.28086,17.3746411 C15.28086,18.2903018 14.7315,18.9054982 13.65798,19.4804089 C14.58702,20.0561589 15.46482,20.7099625 15.46482,21.8606232 C15.46482,23.2739804 14.32494,24.3851946 12.68946,24.3851946 C11.32698,24.3851946 10.1493,23.4947125 10.1493,22.2273911" id="Fill-44" fill=""></path>
                    <path d="M22.023372,23.4721357 C21.604212,23.4721357 20.714652,23.4192607 19.888932,23.4192607 C18.763332,23.4192607 17.977932,23.4192607 17.153892,23.4721357 C17.087532,23.4721357 16.983372,23.1842607 17.048892,23.1448143 C19.300092,21.9681357 20.517252,20.8695107 20.517252,19.442725 C20.517252,18.44985 19.941852,17.8883679 19.170732,17.8883679 C18.540732,17.8883679 18.095532,18.1493857 17.638572,18.6193857 C17.585652,18.6722607 17.428572,18.5018857 17.481492,18.4364214 C18.057732,17.6516893 18.763332,17.127975 19.600812,17.127975 C20.806212,17.127975 21.565572,18.0050286 21.565572,19.0247607 C21.565572,20.3071893 20.137572,21.6794214 18.815412,22.4649929 L20.662572,22.4649929 C21.905772,22.4649929 22.101492,22.3609214 22.180452,21.57535 C22.180452,21.5493321 22.403892,21.5367429 22.403892,21.57535 C22.443372,21.8892429 22.337532,23.0541714 22.285452,23.2488857 C22.245132,23.3932429 22.180452,23.4721357 22.023372,23.4721357" id="Fill-45" fill=""></path>
                    <path d="M25.688124,23.4196804 C25.138764,23.4196804 24.260964,23.4196804 23.869524,23.4725554 C23.789724,23.4977339 23.829204,23.2249661 23.869524,23.2249661 C24.680124,23.1318054 25.034604,23.1066268 25.034604,22.0197518 L25.034604,18.7247161 C25.034604,17.6386804 24.680124,17.5983946 23.869524,17.5077518 C23.829204,17.5077518 23.789724,17.2458946 23.869524,17.2727518 C24.260964,17.3247875 25.138764,17.3247875 25.688124,17.3247875 C26.081244,17.3247875 26.945604,17.3130375 27.220284,17.2727518 C27.299244,17.2458946 27.285804,17.5077518 27.246324,17.5077518 C26.396244,17.5866446 26.094684,17.7033054 26.094684,18.7247161 L26.094684,22.0197518 C26.094684,23.0411625 26.396244,23.1452339 27.246324,23.2249661 C27.285804,23.2249661 27.299244,23.4977339 27.220284,23.4725554 C26.945604,23.4331089 26.081244,23.4196804 25.688124,23.4196804" id="Fill-46" fill=""></path>
                </g>
            </g>
        </g>
    </g>
</svg>
