<?xml version="1.0" encoding="UTF-8"?>
<svg width="399px" height="47px" viewBox="0 0 430 47" version="1.1" xmlns="http://www.w3.org/2000/svg" xmlns:xlink="http://www.w3.org/1999/xlink">
    <!-- Generator: Sketch 43.2 (39069) - http://www.bohemiancoding.com/sketch -->
    <title>Group 9</title>
    <desc>Created with Sketch.</desc>
    <defs>
        <polygon id="path-1" points="21.23688 0.397425094 21.23688 31.0535714 0.088998 31.0535714 0.088998 0.397425094 21.23688 0.397425094"></polygon>
    </defs>
    <g id="Homepage-R3" stroke="none" stroke-width="1" fill="none" fill-rule="evenodd">
        <g id="Widener---Homepage-Copy-9" transform="translate(-74.000000, -22.000000)">
            <g id="Group-9" transform="translate(74.000000, 22.000000)">
                <g id="Group-47" transform="translate(64.680000, 0.436009)">
                    <path d="M186.48168,12.1376661 L186.48168,23.6778446 C186.48168,29.8625411 182.46228,35.0325411 174.56208,35.0325411 C167.77068,35.0325411 162.27288,30.6934339 162.27288,23.3547196 L162.27288,12.5522732 C162.27288,5.44352321 162.08724,5.49052321 157.97544,5.02807679 C157.83684,5.02807679 157.74444,4.47414821 157.97544,4.52030893 C159.91668,4.7511125 161.99568,4.84427321 164.58288,4.84427321 C166.52328,4.84427321 168.78708,4.70579107 170.17224,4.52030893 C170.44944,4.47414821 170.31168,5.02807679 170.21928,5.02807679 C165.92184,5.39820179 165.87648,5.7204875 165.87648,12.5522732 L165.87648,22.4315054 C165.87648,29.9095411 171.00384,33.1407911 175.71708,33.1407911 C181.90788,33.1407911 185.14104,29.6778982 185.14104,23.2153982 L185.14104,12.1376661 C185.14104,6.13677321 184.72608,5.49052321 180.61428,5.02807679 C180.47568,5.02807679 180.38328,4.47414821 180.66048,4.52030893 C182.55384,4.7511125 183.70884,4.84427321 186.34308,4.84427321 C188.23728,4.84427321 189.57708,4.70579107 190.96308,4.52030893 C191.24028,4.47414821 191.14788,5.02807679 191.00928,5.02807679 C186.71268,5.39820179 186.48168,6.4137375 186.48168,12.1376661" id="Fill-12" fill="#0072BC"></path>
                    <path d="M207.039504,34.1099143 C205.236864,34.1099143 203.851704,34.156075 202.558104,34.3407179 C202.373304,34.3868786 202.466544,33.7867893 202.558104,33.7867893 C204.960504,33.5559857 205.468704,33.2328607 205.468704,29.7246464 L205.468704,22.8005393 C205.468704,18.7392357 204.776544,17.03045 202.096104,17.03045 C200.616864,17.03045 199.508904,17.3997357 196.043904,19.5231286 L196.043904,29.7246464 C196.043904,33.0020571 196.459704,33.5559857 198.954504,33.7867893 C199.046904,33.7867893 199.139304,34.3868786 198.954504,34.3407179 C198.030504,34.2013964 195.996864,34.1099143 194.704104,34.1099143 C192.949344,34.1099143 190.777104,34.156075 189.529704,34.3407179 C189.344904,34.3868786 189.437304,33.7867893 189.484344,33.7867893 C192.672144,33.4636643 192.994704,33.3243429 192.994704,29.7246464 L192.994704,21.9696464 C192.994704,18.8768786 192.440304,18.3221107 190.038744,19.1538429 C189.944664,19.1538429 189.761544,18.7845571 189.899304,18.6922357 C191.794344,17.6767 193.918704,16.1072357 195.443304,14.7224143 C195.489504,14.6762536 195.813744,14.8600571 195.813744,14.9993786 C195.905304,15.7841107 195.996864,17.7228607 196.043904,18.7845571 C199.879344,16.061075 202.003704,15.1831821 204.128904,15.1831821 C207.363744,15.1831821 208.517904,17.2612536 208.517904,20.7694679 L208.517904,29.7246464 C208.517904,33.0473786 208.702704,33.5559857 211.983744,33.7867893 C212.075304,33.7867893 212.121504,34.3868786 211.983744,34.3407179 C211.058904,34.2013964 208.333104,34.1099143 207.039504,34.1099143" id="Fill-14" fill="#0072BC"></path>
                    <path d="M217.757736,11.2852875 C216.741336,11.2852875 215.909736,10.3620732 215.909736,9.34569821 C215.909736,8.28568036 216.741336,7.31546607 217.850136,7.31546607 C218.912736,7.31546607 219.744336,8.23868036 219.744336,9.25421607 C219.744336,10.3167518 218.912736,11.2852875 217.757736,11.2852875 M217.250376,34.1096625 C215.493936,34.1096625 213.461136,34.1558232 212.167536,34.3413054 C212.028936,34.3866268 212.075136,33.8326982 212.167536,33.8326982 C215.309136,33.4642518 215.632536,33.3249304 215.632536,29.7252339 L215.632536,21.9240732 C215.632536,18.8766268 215.078136,18.3226982 212.675736,19.1535911 C212.583336,19.1535911 212.444736,18.8304661 212.583336,18.7389839 C214.431336,17.6764482 217.157136,16.1539839 218.635536,14.7230018 C218.681736,14.6760018 219.051336,14.8144839 219.051336,14.9529661 C218.820336,15.8770196 218.681736,20.0768054 218.727936,21.7385911 L218.727936,29.7252339 C218.727936,33.3249304 219.051336,33.4642518 222.192936,33.8326982 C222.285336,33.8326982 222.331536,34.3866268 222.192936,34.3413054 C220.899336,34.1558232 219.005136,34.1096625 217.250376,34.1096625" id="Fill-16" fill="#0072BC"></path>
                    <path d="M238.5936,20.0764696 L232.7724,34.7102554 C232.68,34.9410589 232.218,34.9410589 232.12644,34.7555768 L226.3044,20.0764696 C225.05784,16.9383804 224.133,16.1998089 221.7768,16.0143268 C221.6844,16.0143268 221.6382,15.4603982 221.823,15.5073982 C222.74784,15.6458804 225.19644,15.6912018 226.49004,15.6912018 C228.24564,15.6912018 229.81644,15.6458804 231.11004,15.5073982 C231.24864,15.4603982 231.2016,16.0143268 231.11004,16.0143268 C228.66144,16.2912911 228.1986,16.8452196 229.4922,20.0764696 L233.5116,30.2326661 L237.48564,20.0764696 C238.686,16.9383804 238.31724,16.2912911 235.86864,16.0143268 C235.77624,16.0143268 235.683,15.4603982 235.86864,15.5073982 C237.16224,15.6458804 237.76284,15.6912018 239.5638,15.6912018 C240.81204,15.6912018 242.151,15.6458804 243.07584,15.5073982 C243.26064,15.4603982 243.21444,16.0143268 243.12204,16.0143268 C240.5802,16.1998089 239.7024,17.1683446 238.5936,20.0764696" id="Fill-18" fill="#0072BC"></path>
                    <path d="M250.558728,16.2914589 C248.157168,16.2914589 246.169728,18.3695304 245.569968,21.8769054 L255.317328,21.6469411 C255.271128,19.2465839 253.561728,16.2914589 250.558728,16.2914589 M258.413568,22.3385125 L245.476728,22.6154768 C245.431368,23.1240839 245.384328,23.6780125 245.384328,24.2319411 C245.384328,30.4627982 248.896368,32.9554768 252.268128,32.9554768 C254.393328,32.9554768 256.518528,32.1707446 258.136368,30.9705661 C258.181728,30.9252446 258.458928,31.2936911 258.366528,31.3860125 C256.749528,33.2786018 253.654968,34.7557446 250.743528,34.7557446 C245.615328,34.7557446 242.104968,30.9705661 242.104968,25.6159232 C242.104968,20.0766375 247.002168,15.1836018 251.760768,15.1836018 C256.287528,15.1836018 258.552168,18.5533339 258.552168,21.2306554 C258.552168,21.5999411 258.505128,21.9700661 258.413568,22.3385125" id="Fill-20" fill="#0072BC"></path>
                    <path d="M273.61278,19.2461643 C272.91978,19.2461643 271.81098,17.8613429 270.47118,17.8613429 C269.40858,17.8613429 268.48542,18.3691107 266.91378,20.3078607 L266.91378,29.7246464 C266.91378,32.9558964 267.42198,33.6483071 271.57998,33.83295 C271.62618,33.83295 271.71858,34.3868786 271.53378,34.3407179 C270.60978,34.2013964 266.86758,34.1099143 265.57482,34.1099143 C263.77218,34.1099143 261.64698,34.156075 260.35338,34.3407179 C260.21478,34.3868786 260.26098,33.83295 260.35338,33.83295 C263.49498,33.4636643 263.81838,33.3243429 263.81838,29.7246464 L263.81838,21.9234857 C263.81838,18.8768786 263.26482,18.3221107 260.86158,19.1538429 C260.81622,19.1538429 260.63058,18.8307179 260.76918,18.7392357 C262.61718,17.6767 264.83478,16.061075 266.31402,14.6762536 C266.35938,14.6300929 266.68278,14.8147357 266.72982,14.9070571 C266.82138,15.6917893 266.91378,17.7228607 266.91378,19.3846464 C269.64042,16.014075 271.71858,14.6762536 272.82738,14.6762536 C274.02858,14.6762536 275.09202,16.3372 275.09202,16.8458071 C275.09202,17.6767 274.02858,19.2461643 273.61278,19.2461643" id="Fill-22" fill="#0072BC"></path>
                    <path d="M281.281896,34.7557446 C279.295296,34.7557446 277.354056,34.2018161 275.968896,33.4170839 C275.783256,33.2786018 275.737056,30.2789946 275.737056,28.2940839 C275.737056,28.1547625 276.199056,28.2009232 276.246096,28.2479232 C277.354056,32.3562268 279.664056,33.9248518 282.067296,33.9248518 C284.377296,33.9248518 285.347496,32.5870304 285.347496,30.5559589 C285.347496,26.0775304 276.430896,25.7090839 276.430896,20.4459232 C276.430896,17.7224411 278.694696,15.1836018 282.714096,15.1836018 C284.377296,15.1836018 285.532296,15.4144054 286.641096,15.9683339 C286.871256,16.1068161 287.103096,18.6918161 287.103096,20.5844054 C287.103096,20.6775661 286.594056,20.6775661 286.594056,20.6305661 C285.763296,17.8609232 283.730496,15.9683339 281.743896,15.9683339 C280.034496,15.9683339 279.110496,17.1685125 279.110496,19.0149411 C279.110496,23.3078875 287.887656,23.2617268 287.887656,28.8480125 C287.887656,31.9869411 285.254256,34.7557446 281.281896,34.7557446" id="Fill-24" fill="#0072BC"></path>
                    <path d="M296.06472,11.2852875 C295.04832,11.2852875 294.21672,10.3620732 294.21672,9.34569821 C294.21672,8.28568036 295.04832,7.31546607 296.15712,7.31546607 C297.21972,7.31546607 298.05132,8.23868036 298.05132,9.25421607 C298.05132,10.3167518 297.21972,11.2852875 296.06472,11.2852875 M295.55736,34.1096625 C293.80092,34.1096625 291.76812,34.1558232 290.47452,34.3413054 C290.33592,34.3866268 290.38212,33.8326982 290.47452,33.8326982 C293.61612,33.4642518 293.93952,33.3249304 293.93952,29.7252339 L293.93952,21.9240732 C293.93952,18.8766268 293.38512,18.3226982 290.98272,19.1535911 C290.89032,19.1535911 290.75172,18.8304661 290.89032,18.7389839 C292.73832,17.6764482 295.46412,16.1539839 296.94252,14.7230018 C296.98872,14.6760018 297.35832,14.8144839 297.35832,14.9529661 C297.12732,15.8770196 296.98872,20.0768054 297.03492,21.7385911 L297.03492,29.7252339 C297.03492,33.3249304 297.35832,33.4642518 300.49992,33.8326982 C300.59232,33.8326982 300.63852,34.3866268 300.49992,34.3413054 C299.20632,34.1558232 297.31212,34.1096625 295.55736,34.1096625" id="Fill-26" fill="#0072BC"></path>
                    <path d="M307.61472,34.7557446 C304.75032,34.7557446 303.54912,33.4170839 303.59532,30.3704768 L303.78012,17.6762804 C302.71752,17.6762804 301.28532,17.6762804 300.82332,17.7224411 C300.63852,17.7224411 300.59232,17.2155125 300.68472,17.1685125 C302.94852,15.5998875 304.88892,13.6602982 306.82848,11.4907446 C306.87552,11.4445839 307.19892,11.5839054 307.19892,11.7215482 C307.10652,12.6447625 306.87552,15.0912804 306.82848,16.0144946 L309.32412,16.0144946 C311.26452,16.0144946 312.74208,15.9683339 313.34352,15.7845304 C313.71312,15.6913696 313.48212,17.8609232 312.97392,17.8147625 C312.46572,17.7686018 311.63412,17.7224411 309.92472,17.6762804 L306.82848,17.6762804 L306.64452,29.3087804 C306.59832,32.1245839 307.93812,33.0016375 309.97092,33.0016375 C310.94112,33.0016375 312.18852,32.8169946 313.29732,32.5400304 C313.34352,32.5400304 313.52832,32.9101554 313.38972,32.9554768 C311.49552,34.1556554 308.90832,34.7557446 307.61472,34.7557446" id="Fill-28" fill="#0072BC"></path>
                    <g id="Group-32" transform="translate(312.480000, 15.107143)">
                        <path d="M16.617048,4.96932679 C15.508248,7.87829107 9.039408,21.6795054 7.977648,30.7270054 C7.192248,30.7740054 5.621448,30.7270054 4.836048,30.7740054 C3.542448,30.8201661 3.172848,30.8201661 1.970808,31.0509696 C1.786848,31.0971304 1.832208,30.5432018 1.925448,30.4970411 C3.080448,30.3115589 4.096848,29.6661482 4.789848,29.1575411 C5.944848,28.2804875 7.330848,26.2494161 8.532048,22.8343625 L9.733248,19.5569518 L4.697448,4.96932679 C3.450048,1.8312375 2.526048,1.09266607 0.169848,0.907183929 C0.077448,0.907183929 0.031248,0.353255357 0.216048,0.400255357 C1.140048,0.5387375 3.542448,0.584058929 4.882248,0.584058929 C6.684048,0.584058929 8.070048,0.5387375 9.363648,0.400255357 C9.502248,0.353255357 9.409848,0.907183929 9.363648,0.907183929 C6.915048,1.18414821 6.452208,1.73807679 7.700448,4.96932679 L11.257848,15.7717732 L15.554448,4.96932679 C16.755648,1.8312375 16.386048,1.18414821 13.891248,0.907183929 C13.798848,0.907183929 13.752648,0.353255357 13.891248,0.400255357 C15.184848,0.5387375 15.785448,0.584058929 17.587248,0.584058929 C18.927048,0.584058929 20.220648,0.5387375 21.144648,0.400255357 C21.283248,0.353255357 21.237048,0.907183929 21.190848,0.907183929 C18.649848,1.09266607 17.772048,2.06120179 16.617048,4.96932679" id="Fill-30" fill="#0072BC"></path>
                    </g>
                    <path d="M40.91388,12.5527768 L31.85868,34.8484018 C31.81248,34.9868839 31.44288,35.0330446 31.35048,34.8022411 L24.46668,14.8608125 L15.91968,34.8484018 C15.87264,34.9868839 15.50388,35.0330446 15.41148,34.8022411 L6.72588,12.5527768 C4.55364,6.96733036 3.81444,5.35170536 0.16548,5.02858036 C0.07224,5.02858036 -0.01932,4.47465179 0.21084,4.5208125 C1.50444,4.70545536 3.26004,4.8439375 5.01648,4.8439375 C7.46508,4.8439375 10.51428,4.75161607 12.26904,4.5208125 C12.50088,4.47465179 12.36228,5.02858036 12.26904,5.02858036 C10.05228,5.21322321 8.89728,5.58250893 8.89728,6.87500893 C8.89728,7.84438393 9.95904,10.9833125 10.56048,12.5527768 L17.07468,29.3091161 L23.86608,13.1528661 L23.63508,12.5527768 C21.69468,6.87500893 20.90928,5.35170536 17.39724,5.02858036 C17.30568,5.02858036 17.21328,4.47465179 17.44428,4.5208125 C18.73788,4.70545536 20.49264,4.8439375 22.24908,4.8439375 C24.69768,4.8439375 28.11648,4.75161607 29.87124,4.5208125 C30.10308,4.47465179 30.01068,5.02858036 29.91828,5.02858036 C27.00768,5.25938393 26.08368,5.67483036 26.08368,7.1058125 C26.08368,8.12134821 26.54568,9.82929464 27.46968,12.5527768 L33.01368,29.3552768 L39.57408,12.3219732 C40.63668,9.59849107 41.19108,8.12134821 41.19108,6.92116964 C41.19108,5.72099107 40.45188,5.25938393 38.14188,5.02858036 C38.04948,5.02858036 37.91088,4.47465179 38.18808,4.5208125 C39.48168,4.70545536 40.82148,4.8439375 42.62328,4.8439375 C45.07104,4.8439375 45.07104,4.75161607 46.87368,4.5208125 C47.10384,4.47465179 46.96608,5.02858036 46.87368,5.02858036 C44.00928,5.30554464 43.03908,7.24429464 40.91388,12.5527768" id="Fill-33" fill="#0072BC"></path>
                    <path d="M47.770044,11.2852875 C46.754484,11.2852875 45.922884,10.3620732 45.922884,9.3465375 C45.922884,8.28484107 46.754484,7.31546607 47.862444,7.31546607 C48.925044,7.31546607 49.756644,8.23868036 49.756644,9.25421607 C49.756644,10.3159125 48.925044,11.2852875 47.770044,11.2852875 M47.262684,34.1096625 C45.507084,34.1096625 43.474284,34.1558232 42.180684,34.3404661 C42.042084,34.3866268 42.087444,33.8326982 42.180684,33.8326982 C45.322284,33.4634125 45.645684,33.3249304 45.645684,29.7243946 L45.645684,21.9232339 C45.645684,18.8766268 45.091284,18.3226982 42.688884,19.1535911 C42.595644,19.1535911 42.457884,18.8304661 42.595644,18.7381446 C44.444484,17.6764482 47.169444,16.1531446 48.647844,14.7221625 C48.694884,14.6760018 49.064484,14.8144839 49.064484,14.9529661 C48.833484,15.8761804 48.694884,20.0768054 48.741084,21.7385911 L48.741084,29.7243946 C48.741084,33.3249304 49.064484,33.4634125 52.205244,33.8326982 C52.298484,33.8326982 52.343844,34.3866268 52.205244,34.3404661 C50.911644,34.1558232 49.017444,34.1096625 47.262684,34.1096625" id="Fill-35" fill="#0072BC"></path>
                    <path d="M68.236896,19.7076036 C66.850896,18.2766214 64.864296,17.0764429 62.277096,17.0764429 C58.950696,17.0764429 56.733096,19.4768 56.733096,24.5083179 C56.733096,30.0937643 60.382896,32.8172464 63.663096,32.8172464 C65.095296,32.8172464 66.435096,32.2171571 68.236896,30.9246571 L68.236896,19.7076036 Z M69.484296,34.8483179 C68.745096,34.8483179 68.283096,33.04805 68.236896,31.8940321 C65.834496,33.8327821 63.524496,34.7559964 61.491696,34.7559964 C57.334536,34.7559964 53.591496,31.0169786 53.591496,26.0316214 C53.591496,20.5384964 58.257696,15.5993 64.309896,15.5993 C65.788296,15.5993 67.174296,15.8301036 68.236896,16.1070679 L68.236896,7.47501429 C68.236896,4.42840714 67.682496,3.87447857 65.280096,4.65921071 C65.233896,4.70537143 65.049096,4.33608571 65.187696,4.24376429 C67.035696,3.22822857 69.761496,1.79724643 71.239896,0.412425 C71.286096,0.366264286 71.655696,0.504746429 71.655696,0.643228571 C71.424696,1.52028214 71.333136,5.582425 71.333136,7.29037143 L71.333136,30.4168893 C71.333136,32.6787643 72.210096,33.0018893 75.075336,32.2171571 C75.120696,32.2171571 75.305496,32.6326036 75.166896,32.6787643 C73.596096,33.5096571 70.546896,34.8483179 69.484296,34.8483179 L69.484296,34.8483179 Z" id="Fill-37" fill="#0072BC"></path>
                    <path d="M84.68334,16.2918786 C82.28178,16.2918786 80.29434,18.3691107 79.69458,21.877325 L89.44194,21.6465214 C89.39574,19.2461643 87.68634,16.2918786 84.68334,16.2918786 M92.53818,22.3389321 L79.60134,22.6158964 C79.55598,23.1236643 79.50894,23.6775929 79.50894,24.2315214 C79.50894,30.4632179 83.02098,32.9558964 86.39274,32.9558964 C88.51794,32.9558964 90.64314,32.1711643 92.26098,30.9709857 C92.30634,30.924825 92.58354,31.2941107 92.49114,31.3864321 C90.87414,33.2790214 87.77958,34.7561643 84.86814,34.7561643 C79.73994,34.7561643 76.22958,30.9709857 76.22958,25.6163429 C76.22958,20.0770571 81.12678,15.1840214 85.88538,15.1840214 C90.41214,15.1840214 92.67678,18.5537536 92.67678,21.231075 C92.67678,21.6003607 92.62974,21.9696464 92.53818,22.3389321" id="Fill-39" fill="#0072BC"></path>
                    <path d="M112.450044,34.1099143 C110.647404,34.1099143 109.262244,34.156075 107.968644,34.3407179 C107.783004,34.3868786 107.876244,33.7867893 107.968644,33.7867893 C110.370204,33.5559857 110.879244,33.2328607 110.879244,29.7246464 L110.879244,22.8005393 C110.879244,18.7383964 110.186244,17.03045 107.505804,17.03045 C106.027404,17.03045 104.919444,17.3997357 101.453604,19.5231286 L101.453604,29.7246464 C101.453604,33.0020571 101.869404,33.5559857 104.365044,33.7867893 C104.456604,33.7867893 104.549844,34.3868786 104.365044,34.3407179 C103.440204,34.2022357 101.407404,34.1099143 100.113804,34.1099143 C98.359044,34.1099143 96.187644,34.156075 94.939404,34.3407179 C94.755444,34.3868786 94.847844,33.7867893 94.894044,33.7867893 C98.081844,33.4636643 98.404404,33.3251821 98.404404,29.7246464 L98.404404,21.9696464 C98.404404,18.8768786 97.850004,18.32295 95.448444,19.1538429 C95.355204,19.1538429 95.171244,18.7845571 95.309844,18.6922357 C97.204044,17.6767 99.329244,16.1072357 100.853004,14.7224143 C100.900044,14.6762536 101.223444,14.8608964 101.223444,14.9993786 C101.315844,15.7841107 101.407404,17.7228607 101.453604,18.7845571 C105.289044,16.061075 107.414244,15.1840214 109.539444,15.1840214 C112.773444,15.1840214 113.928444,17.2612536 113.928444,20.7694679 L113.928444,29.7246464 C113.928444,33.0482179 114.112404,33.5559857 117.393444,33.7867893 C117.485844,33.7867893 117.532044,34.3868786 117.393444,34.3407179 C116.469444,34.2022357 113.743644,34.1099143 112.450044,34.1099143" id="Fill-41" fill="#0072BC"></path>
                    <path d="M126.817824,16.2918786 C124.416264,16.2918786 122.428824,18.3691107 121.829064,21.877325 L131.576424,21.6465214 C131.530224,19.2461643 129.820824,16.2918786 126.817824,16.2918786 M134.672664,22.3389321 L121.735824,22.6158964 C121.690464,23.1236643 121.643424,23.6775929 121.643424,24.2315214 C121.643424,30.4632179 125.155464,32.9558964 128.527224,32.9558964 C130.652424,32.9558964 132.777624,32.1711643 134.395464,30.9709857 C134.440824,30.924825 134.718024,31.2941107 134.625624,31.3864321 C133.008624,33.2790214 129.914064,34.7561643 127.002624,34.7561643 C121.874424,34.7561643 118.364064,30.9709857 118.364064,25.6163429 C118.364064,20.0770571 123.261264,15.1840214 128.019864,15.1840214 C132.546624,15.1840214 134.811264,18.5537536 134.811264,21.231075 C134.811264,21.6003607 134.764224,21.9696464 134.672664,22.3389321" id="Fill-43" fill="#0072BC"></path>
                    <path d="M150.333792,19.2461643 C149.640792,19.2461643 148.531992,17.8613429 147.192192,17.8613429 C146.129592,17.8613429 145.206432,18.3691107 143.634792,20.3078607 L143.634792,29.7246464 C143.634792,32.9558964 144.142992,33.6483071 148.300992,33.83295 C148.347192,33.83295 148.439592,34.3868786 148.254792,34.3407179 C147.330792,34.2022357 143.588592,34.1099143 142.295832,34.1099143 C140.493192,34.1099143 138.367992,34.156075 137.074392,34.3407179 C136.935792,34.3868786 136.981992,33.83295 137.074392,33.83295 C140.215992,33.4636643 140.539392,33.3251821 140.539392,29.7246464 L140.539392,21.9234857 C140.539392,18.8768786 139.984992,18.32295 137.582592,19.1538429 C137.537232,19.1538429 137.351592,18.8307179 137.490192,18.7383964 C139.338192,17.6767 141.555792,16.061075 143.035032,14.6762536 C143.080392,14.6300929 143.403792,14.8147357 143.450832,14.9070571 C143.542392,15.6917893 143.634792,17.7228607 143.634792,19.3846464 C146.361432,16.0149143 148.439592,14.6762536 149.548392,14.6762536 C150.749592,14.6762536 151.812192,16.3380393 151.812192,16.8458071 C151.812192,17.6767 150.749592,19.2461643 150.333792,19.2461643" id="Fill-45" fill="#0072BC"></path>
                </g>
                <g id="Group-47" transform="translate(0.000000, 4.196429)">
                    <path d="M16.211412,39.6930946 C8.543052,35.2045946 0.000252,30.0110946 0.000252,22.3811482 L0.000252,11.8137018 L0.000252,0.645326786 L32.421732,0.645326786 L32.421732,22.3811482 C32.421732,30.0110946 23.878092,35.2045946 16.211412,39.6930946 Z" id="Fill-37" fill="#0076BF"></path>
                    <path d="M16.211412,36.9441821 C22.875132,33.0431821 30.298212,28.5311821 30.298212,21.8991464 L30.298212,2.7542 L2.122932,2.7542 L2.122932,12.7156821 L2.122932,21.8991464 C2.122932,28.5311821 9.547692,33.0431821 16.211412,36.9441821" id="Fill-39" fill="#FEFEFE"></path>
                    <polygon id="Fill-41" fill="#0076BF" points="7.99764 11.8658214 24.42552 11.8658214 24.42552 9.74998214 7.99764 9.74998214"></polygon>
                    <path d="M6.732264,23.4196804 C6.182904,23.4196804 5.306784,23.4196804 4.912824,23.4725554 C4.834704,23.4977339 4.873344,23.2249661 4.912824,23.2249661 C5.725104,23.1318054 6.078744,23.1066268 6.078744,22.0197518 L6.078744,18.7247161 C6.078744,17.6386804 5.725104,17.5983946 4.912824,17.5077518 C4.873344,17.5077518 4.834704,17.2458946 4.912824,17.2727518 C5.306784,17.3247875 6.182904,17.3247875 6.732264,17.3247875 C7.126224,17.3247875 7.989744,17.3130375 8.265264,17.2727518 C8.342544,17.2458946 8.330784,17.5077518 8.289624,17.5077518 C7.438704,17.5866446 7.137984,17.7033054 7.137984,18.7247161 L7.137984,22.0197518 C7.137984,23.0411625 7.438704,23.1452339 8.289624,23.2249661 C8.330784,23.2249661 8.342544,23.4977339 8.265264,23.4725554 C7.989744,23.4331089 7.126224,23.4196804 6.732264,23.4196804" id="Fill-43" fill="#0076BF"></path>
                    <path d="M11.55042,17.2168554 C11.55042,18.1719625 12.37446,18.7082661 13.2657,19.2454089 C13.9587,18.8140161 14.35182,18.1988196 14.35182,17.4409446 C14.35182,16.5110161 13.73694,15.8580518 12.89778,15.8580518 C12.08802,15.8580518 11.55042,16.4069446 11.55042,17.2168554 M11.1573,22.2273911 C11.1573,23.4040696 12.0477,23.9798196 12.8457,23.9798196 C13.93266,23.9798196 14.56182,23.2999982 14.56182,22.4237839 C14.56182,21.2991411 13.55382,20.7351411 12.57102,20.1476411 C11.64114,20.6050518 11.1573,21.2202482 11.1573,22.2273911 M10.1493,22.2273911 C10.1493,21.2596946 10.8969,20.4212482 12.15186,19.8983732 C11.31522,19.3620696 10.60794,18.7745696 10.60794,17.7926054 C10.60794,16.4203732 11.72094,15.4644268 13.13466,15.4644268 C14.31318,15.4644268 15.28086,16.3011946 15.28086,17.3746411 C15.28086,18.2903018 14.7315,18.9054982 13.65798,19.4804089 C14.58702,20.0561589 15.46482,20.7099625 15.46482,21.8606232 C15.46482,23.2739804 14.32494,24.3851946 12.68946,24.3851946 C11.32698,24.3851946 10.1493,23.4947125 10.1493,22.2273911" id="Fill-44" fill="#0076BF"></path>
                    <path d="M22.023372,23.4721357 C21.604212,23.4721357 20.714652,23.4192607 19.888932,23.4192607 C18.763332,23.4192607 17.977932,23.4192607 17.153892,23.4721357 C17.087532,23.4721357 16.983372,23.1842607 17.048892,23.1448143 C19.300092,21.9681357 20.517252,20.8695107 20.517252,19.442725 C20.517252,18.44985 19.941852,17.8883679 19.170732,17.8883679 C18.540732,17.8883679 18.095532,18.1493857 17.638572,18.6193857 C17.585652,18.6722607 17.428572,18.5018857 17.481492,18.4364214 C18.057732,17.6516893 18.763332,17.127975 19.600812,17.127975 C20.806212,17.127975 21.565572,18.0050286 21.565572,19.0247607 C21.565572,20.3071893 20.137572,21.6794214 18.815412,22.4649929 L20.662572,22.4649929 C21.905772,22.4649929 22.101492,22.3609214 22.180452,21.57535 C22.180452,21.5493321 22.403892,21.5367429 22.403892,21.57535 C22.443372,21.8892429 22.337532,23.0541714 22.285452,23.2488857 C22.245132,23.3932429 22.180452,23.4721357 22.023372,23.4721357" id="Fill-45" fill="#0076BF"></path>
                    <path d="M25.688124,23.4196804 C25.138764,23.4196804 24.260964,23.4196804 23.869524,23.4725554 C23.789724,23.4977339 23.829204,23.2249661 23.869524,23.2249661 C24.680124,23.1318054 25.034604,23.1066268 25.034604,22.0197518 L25.034604,18.7247161 C25.034604,17.6386804 24.680124,17.5983946 23.869524,17.5077518 C23.829204,17.5077518 23.789724,17.2458946 23.869524,17.2727518 C24.260964,17.3247875 25.138764,17.3247875 25.688124,17.3247875 C26.081244,17.3247875 26.945604,17.3130375 27.220284,17.2727518 C27.299244,17.2458946 27.285804,17.5077518 27.246324,17.5077518 C26.396244,17.5866446 26.094684,17.7033054 26.094684,18.7247161 L26.094684,22.0197518 C26.094684,23.0411625 26.396244,23.1452339 27.246324,23.2249661 C27.285804,23.2249661 27.299244,23.4977339 27.220284,23.4725554 C26.945604,23.4331089 26.081244,23.4196804 25.688124,23.4196804" id="Fill-46" fill="#0076BF"></path>
                </g>
            </g>
        </g>
    </g>
</svg>
