<?xml version="1.0" encoding="UTF-8"?>
<svg width="278px" height="33px" viewBox="0 0 278 33" version="1.1" xmlns="http://www.w3.org/2000/svg" xmlns:xlink="http://www.w3.org/1999/xlink">
    <!-- Generator: Sketch 43.2 (39069) - http://www.bohemiancoding.com/sketch -->
    <title>Group 9</title>
    <desc>Created with Sketch.</desc>
    <defs>
        <polygon id="path-1" points="14.7905291 0.276673373 14.7905291 21.6184043 0.0619830932 21.6184043 0.0619830932 0.276673373 14.7905291 0.276673373"></polygon>
    </defs>
    <g id="Homepage-R3" stroke="none" stroke-width="1" fill="none" fill-rule="evenodd">
        <g id="Widener---Homepage-Copy-9" transform="translate(-73.000000, -4838.000000)">
            <g id="Footer" transform="translate(0.000000, 4778.000000)">
                <g id="Group-9" transform="translate(73.000000, 60.000000)">
                    <g id="Group-47" transform="translate(45.046703, 0.303534)">
                        <path d="M129.87608,8.44981625 L129.87608,16.4836827 C129.87608,20.7892509 127.076749,24.388423 121.574616,24.388423 C116.844712,24.388423 113.015742,21.3676892 113.015742,16.2587345 L113.015742,8.73845116 C113.015742,3.78958942 112.886452,3.82230917 110.022769,3.50037023 C109.926241,3.50037023 109.861888,3.11474464 110.022769,3.1468801 C111.374755,3.30755743 112.822685,3.37241264 114.624553,3.37241264 C115.975954,3.37241264 117.552589,3.27600625 118.51729,3.1468801 C118.710348,3.11474464 118.614404,3.50037023 118.550052,3.50037023 C115.557078,3.75803823 115.525487,3.98240221 115.525487,8.73845116 L115.525487,15.6160251 C115.525487,20.8219706 119.096462,23.0714532 122.379021,23.0714532 C126.690634,23.0714532 128.942384,20.660709 128.942384,16.1617438 L128.942384,8.44981625 C128.942384,4.27220569 128.653384,3.82230917 125.7897,3.50037023 C125.693172,3.50037023 125.628819,3.11474464 125.821876,3.1468801 C127.140516,3.30755743 127.944922,3.37241264 129.779551,3.37241264 C131.098776,3.37241264 132.031886,3.27600625 132.997173,3.1468801 C133.19023,3.11474464 133.125878,3.50037023 133.029349,3.50037023 C130.036961,3.75803823 129.87608,4.46501848 129.87608,8.44981625" id="Fill-12" fill="#FFFFFF"></path>
                        <path d="M144.193677,23.7461227 C142.93822,23.7461227 141.973518,23.7782582 141.072584,23.9068 C140.943879,23.9389355 141.008817,23.5211745 141.072584,23.5211745 C142.745747,23.3604971 143.099686,23.1355489 143.099686,20.6932535 L143.099686,15.8729336 C143.099686,13.0455969 142.617627,11.8560003 140.750822,11.8560003 C139.720598,11.8560003 138.948954,12.1130841 136.535737,13.5913155 L136.535737,20.6932535 C136.535737,22.9748715 136.825323,23.3604971 138.562839,23.5211745 C138.627192,23.5211745 138.691544,23.9389355 138.562839,23.9068 C137.919315,23.8098094 136.502976,23.7461227 135.602627,23.7461227 C134.380516,23.7461227 132.867649,23.7782582 131.998891,23.9068 C131.870186,23.9389355 131.934539,23.5211745 131.9673,23.5211745 C134.187459,23.2962262 134.412107,23.1992355 134.412107,20.6932535 L134.412107,15.2944952 C134.412107,13.141419 134.025993,12.7552091 132.353414,13.3342318 C132.287892,13.3342318 132.160357,13.077148 132.256301,13.0128771 C133.576111,12.3058969 135.055632,11.213291 136.117447,10.2492271 C136.149623,10.2170916 136.375441,10.3450492 136.375441,10.4420398 C136.439209,10.9883428 136.502976,12.3380323 136.535737,13.077148 C139.206948,11.1811556 140.686469,10.5699974 142.166575,10.5699974 C144.419496,10.5699974 145.223316,12.0166777 145.223316,14.4589731 L145.223316,20.6932535 C145.223316,23.0064227 145.352021,23.3604971 147.637117,23.5211745 C147.700885,23.5211745 147.733061,23.9389355 147.637117,23.9068 C146.993008,23.8098094 145.094611,23.7461227 144.193677,23.7461227" id="Fill-14" fill="#FFFFFF"></path>
                        <path d="M151.658442,7.85642026 C150.950565,7.85642026 150.371394,7.21371095 150.371394,6.50614642 C150.371394,5.76819926 150.950565,5.0927702 151.722795,5.0927702 C152.462848,5.0927702 153.042019,5.73547952 153.042019,6.44245977 C153.042019,7.18215976 152.462848,7.85642026 151.658442,7.85642026 M151.305089,23.7459474 C150.081808,23.7459474 148.666054,23.7780829 147.76512,23.907209 C147.668591,23.9387602 147.700768,23.5531346 147.76512,23.5531346 C149.953103,23.2966352 150.178336,23.1996445 150.178336,20.6936625 L150.178336,15.2627687 C150.178336,13.1412437 149.792222,12.7556181 148.119058,13.3340565 C148.054706,13.3340565 147.958177,13.1091082 148.054706,13.0454216 C149.341755,12.3057216 151.240151,11.2458355 152.26979,10.249636 C152.301966,10.2169163 152.559376,10.3133227 152.559376,10.4097291 C152.398495,11.0530227 152.301966,13.9767658 152.334143,15.1336426 L152.334143,20.6936625 C152.334143,23.1996445 152.559376,23.2966352 154.747359,23.5531346 C154.811711,23.5531346 154.843888,23.9387602 154.747359,23.907209 C153.846425,23.7780829 152.5272,23.7459474 151.305089,23.7459474" id="Fill-16" fill="#FFFFFF"></path>
                        <path d="M166.169682,13.9765321 L162.115478,24.1640591 C162.051126,24.3247364 161.729364,24.3247364 161.665596,24.1956102 L157.610808,13.9765321 C156.742635,11.7919047 156.098526,11.2777372 154.457539,11.1486111 C154.393187,11.1486111 154.36101,10.7629855 154.489715,10.7957053 C155.133825,10.8921117 156.839164,10.9236628 157.740098,10.9236628 C158.962794,10.9236628 160.056786,10.8921117 160.95772,10.7957053 C161.054248,10.7629855 161.021487,11.1486111 160.95772,11.1486111 C159.25238,11.3414239 158.930033,11.7270495 159.830967,13.9765321 L162.630298,21.0469189 L165.398038,13.9765321 C166.234034,11.7919047 165.977209,11.3414239 164.27187,11.1486111 C164.207518,11.1486111 164.14258,10.7629855 164.27187,10.7957053 C165.172804,10.8921117 165.591095,10.9236628 166.845382,10.9236628 C167.714725,10.9236628 168.64725,10.8921117 169.29136,10.7957053 C169.420065,10.7629855 169.387888,11.1486111 169.323536,11.1486111 C167.553259,11.2777372 166.941911,11.9519977 166.169682,13.9765321" id="Fill-18" fill="#FFFFFF"></path>
                        <path d="M174.502854,11.3415408 C172.830276,11.3415408 171.446113,12.788221 171.028407,15.2299321 L177.817004,15.0698391 C177.784828,13.3987948 176.594308,11.3415408 174.502854,11.3415408 M179.973396,15.5512868 L170.96347,15.7440996 C170.931879,16.098174 170.899118,16.4837996 170.899118,16.8694252 C170.899118,21.2071288 173.345095,22.9424439 175.693374,22.9424439 C177.17348,22.9424439 178.653586,22.396141 179.780338,21.5606189 C179.811929,21.5290677 180.004987,21.7855672 179.940634,21.8498381 C178.814467,23.1673922 176.659245,24.1957271 174.631559,24.1957271 C171.059999,24.1957271 168.615191,21.5606189 168.615191,17.8329049 C168.615191,13.976649 172.02587,10.5702896 175.34002,10.5702896 C178.492705,10.5702896 180.069924,12.9161786 180.069924,14.7800356 C180.069924,15.0371193 180.037163,15.2947873 179.973396,15.5512868" id="Fill-20" fill="#FFFFFF"></path>
                        <path d="M190.558961,13.3985027 C190.076318,13.3985027 189.304089,12.4344387 188.370979,12.4344387 C187.630926,12.4344387 186.987986,12.7879289 185.89341,14.1376184 L185.89341,20.6932535 C185.89341,22.9427361 186.247348,23.4247681 189.143208,23.5533099 C189.175384,23.5533099 189.239736,23.9389355 189.111031,23.9068 C188.467507,23.8098094 185.861234,23.7461227 184.960885,23.7461227 C183.705427,23.7461227 182.225321,23.7782582 181.324387,23.9068 C181.227858,23.9389355 181.260035,23.5533099 181.324387,23.5533099 C183.51237,23.2962262 183.737603,23.1992355 183.737603,20.6932535 L183.737603,15.2623597 C183.737603,13.141419 183.352074,12.7552091 181.678326,13.3342318 C181.646734,13.3342318 181.517444,13.1092835 181.613973,13.0455969 C182.901022,12.3058969 184.44548,11.1811556 185.475704,10.2170916 C185.507295,10.1849561 185.732529,10.313498 185.76529,10.3777689 C185.829057,10.9240718 185.89341,12.3380323 185.89341,13.4949091 C187.792392,11.1484358 189.239736,10.2170916 190.011966,10.2170916 C190.848547,10.2170916 191.589185,11.3733841 191.589185,11.7274585 C191.589185,12.3058969 190.848547,13.3985027 190.558961,13.3985027" id="Fill-22" fill="#FFFFFF"></path>
                        <path d="M195.900155,24.1957271 C194.516577,24.1957271 193.164591,23.8101015 192.19989,23.2637986 C192.0706,23.1673922 192.038424,21.0791712 192.038424,19.6973462 C192.038424,19.6003555 192.360186,19.6324909 192.392947,19.6652107 C193.164591,22.5252671 194.773402,23.6172887 196.44715,23.6172887 C198.055961,23.6172887 198.731662,22.6859445 198.731662,21.271984 C198.731662,18.1542595 192.521652,17.8977601 192.521652,14.2337327 C192.521652,12.3377402 194.098287,10.5702896 196.897617,10.5702896 C198.055961,10.5702896 198.860367,10.7309669 199.632596,11.1165925 C199.792892,11.2129989 199.954358,13.012585 199.954358,14.3301391 C199.954358,14.3949943 199.599835,14.3949943 199.599835,14.3622745 C199.021248,12.4341466 197.605494,11.1165925 196.221917,11.1165925 C195.031397,11.1165925 194.387872,11.9521146 194.387872,13.2375332 C194.387872,16.2261316 200.500769,16.1939961 200.500769,20.0829717 C200.500769,22.2681834 198.666724,24.1957271 195.900155,24.1957271" id="Fill-24" fill="#FFFFFF"></path>
                        <path d="M206.195725,7.85642026 C205.487848,7.85642026 204.908676,7.21371095 204.908676,6.50614642 C204.908676,5.76819926 205.487848,5.0927702 206.260077,5.0927702 C207.00013,5.0927702 207.579302,5.73547952 207.579302,6.44245977 C207.579302,7.18215976 207.00013,7.85642026 206.195725,7.85642026 M205.842371,23.7459474 C204.61909,23.7459474 203.203337,23.7780829 202.302403,23.907209 C202.205874,23.9387602 202.23805,23.5531346 202.302403,23.5531346 C204.490385,23.2966352 204.715619,23.1996445 204.715619,20.6936625 L204.715619,15.2627687 C204.715619,13.1412437 204.329504,12.7556181 202.656341,13.3340565 C202.591989,13.3340565 202.49546,13.1091082 202.591989,13.0454216 C203.879037,12.3057216 205.777434,11.2458355 206.807073,10.249636 C206.839249,10.2169163 207.096659,10.3133227 207.096659,10.4097291 C206.935778,11.0530227 206.839249,13.9767658 206.871425,15.1336426 L206.871425,20.6936625 C206.871425,23.1996445 207.096659,23.2966352 209.284642,23.5531346 C209.348994,23.5531346 209.38117,23.9387602 209.284642,23.907209 C208.383708,23.7780829 207.064483,23.7459474 205.842371,23.7459474" id="Fill-26" fill="#FFFFFF"></path>
                        <path d="M214.239779,24.1957271 C212.244854,24.1957271 211.408272,23.2637986 211.440448,21.1428578 L211.569153,12.3056047 C210.8291,12.3056047 209.831637,12.3056047 209.509875,12.3377402 C209.38117,12.3377402 209.348994,11.9848343 209.413346,11.9521146 C210.989981,10.860093 212.341382,9.5098192 213.692198,7.9994523 C213.724959,7.96731684 213.950193,8.06430751 213.950193,8.16012963 C213.885841,8.80283895 213.724959,10.5060186 213.692198,11.148728 L215.430299,11.148728 C216.7817,11.148728 217.810754,11.1165925 218.22963,10.9886349 C218.487039,10.9237797 218.326158,12.4341466 217.97222,12.4020111 C217.618282,12.3698757 217.03911,12.3377402 215.84859,12.3056047 L213.692198,12.3056047 L213.564078,20.4037421 C213.531902,22.3640055 214.465012,22.9745794 215.880766,22.9745794 C216.556467,22.9745794 217.425224,22.8460375 218.197454,22.6532247 C218.22963,22.6532247 218.358335,22.9108927 218.261806,22.9424439 C216.942581,23.777966 215.140713,24.1957271 214.239779,24.1957271" id="Fill-28" fill="#FFFFFF"></path>
                        <g id="Group-32" transform="translate(217.628227, 10.517062)">
                            <path d="M11.5730245,3.45947054 C10.8007953,5.48458917 6.29553999,15.0925092 5.55607204,21.3910605 C5.00907636,21.4237802 3.915085,21.3910605 3.36808932,21.4237802 C2.46715527,21.4559157 2.20974554,21.4559157 1.37257889,21.616593 C1.24445904,21.6487285 1.27605024,21.2631029 1.34098769,21.2309674 C2.1453931,21.1018413 2.85326986,20.6525291 3.33591311,20.2984547 C4.14031852,19.6878808 5.10560501,18.2739203 5.94218663,15.8964801 L6.77876826,13.614862 L3.27156068,3.45947054 C2.40280283,1.27484314 1.75927851,0.760675691 0.118291472,0.631549546 C0.0539390391,0.631549546 0.0217628227,0.245923956 0.150467688,0.278643703 C0.793992015,0.375050101 2.46715527,0.406601285 3.40026554,0.406601285 C4.65513798,0.406601285 5.62042447,0.375050101 6.52135853,0.278643703 C6.61788718,0.245923956 6.55353474,0.631549546 6.52135853,0.631549546 C4.81601906,0.824362341 4.49367187,1.20998793 5.36301474,3.45947054 L7.8405834,10.9797538 L10.8329715,3.45947054 C11.6695531,1.27484314 11.4121434,0.824362341 9.67462773,0.631549546 C9.6102753,0.631549546 9.57809908,0.245923956 9.67462773,0.278643703 C10.5755618,0.375050101 10.9938526,0.406601285 12.248725,0.406601285 C13.1818353,0.406601285 14.0827694,0.375050101 14.7262937,0.278643703 C14.8228223,0.245923956 14.7906461,0.631549546 14.7584699,0.631549546 C12.988778,0.760675691 12.3774299,1.43493619 11.5730245,3.45947054" id="Fill-30" fill="#FFFFFF"></path>
                        </g>
                        <path d="M28.4946722,8.73880173 L22.1881338,24.2602317 C22.1559576,24.3566381 21.8985478,24.3887736 21.8341954,24.2280963 L17.0399392,10.345575 L11.0873391,24.2602317 C11.0545779,24.3566381 10.7977532,24.3887736 10.7334008,24.2280963 L4.68427208,8.73880173 C3.17140489,4.85041036 2.65658543,3.72566906 0.115249357,3.50072079 C0.0503119019,3.50072079 -0.0134555087,3.1150952 0.146840551,3.14723067 C1.04777461,3.27577253 2.27047083,3.37217893 3.49375207,3.37217893 C5.19909154,3.37217893 7.32272182,3.307908 8.54483302,3.14723067 C8.70629913,3.1150952 8.60977048,3.50072079 8.54483302,3.50072079 C7.00095966,3.62926266 6.19655425,3.88634638 6.19655425,4.78613943 C6.19655425,5.46098421 6.9360222,7.64619589 7.35489804,8.73880173 L11.8917445,20.4039758 L16.6216484,9.15656278 L16.4607673,8.73880173 C15.1093662,4.78613943 14.5623705,3.72566906 12.116393,3.50072079 C12.0526256,3.50072079 11.9882732,3.1150952 12.1491543,3.14723067 C13.0500883,3.27577253 14.2721995,3.37217893 15.4954808,3.37217893 C17.2008202,3.37217893 19.5818603,3.307908 20.8039715,3.14723067 C20.9654376,3.1150952 20.9010851,3.50072079 20.8367327,3.50072079 C18.8096311,3.66139812 18.1661067,3.95061732 18.1661067,4.94681676 C18.1661067,5.65379701 18.4878689,6.84280924 19.1313932,8.73880173 L22.9925392,20.4361113 L27.5615619,8.5781244 C28.3016149,6.68213191 28.6877295,5.65379701 28.6877295,4.81827489 C28.6877295,3.98275278 28.17291,3.66139812 26.5640992,3.50072079 C26.4997468,3.50072079 26.4032181,3.1150952 26.5962754,3.14723067 C27.4972095,3.27577253 28.4303198,3.37217893 29.6851922,3.37217893 C31.3899466,3.37217893 31.3899466,3.307908 32.6454041,3.14723067 C32.8057002,3.1150952 32.7097565,3.50072079 32.6454041,3.50072079 C30.6504787,3.69353359 29.9747781,5.04322316 28.4946722,8.73880173" id="Fill-33" fill="#FFFFFF"></path>
                        <path d="M33.2696812,7.85642026 C32.5623895,7.85642026 31.9832176,7.21371095 31.9832176,6.5067307 C31.9832176,5.76761498 32.5623895,5.0927702 33.3340336,5.0927702 C34.0740866,5.0927702 34.6532585,5.73547952 34.6532585,6.44245977 C34.6532585,7.18157548 34.0740866,7.85642026 33.2696812,7.85642026 M32.9163278,23.7459474 C31.6936316,23.7459474 30.2778781,23.7780829 29.376944,23.9066248 C29.2804154,23.9387602 29.3120066,23.5531346 29.376944,23.5531346 C31.5649268,23.2960509 31.7901603,23.1996445 31.7901603,20.6930782 L31.7901603,15.2621844 C31.7901603,13.1412437 31.4040457,12.7556181 29.7308824,13.3340565 C29.665945,13.3340565 29.5700013,13.1091082 29.665945,13.0448373 C30.9535786,12.3057216 32.8513904,11.2452512 33.8810293,10.2490518 C33.9137905,10.2169163 34.1712003,10.3133227 34.1712003,10.4097291 C34.0103192,11.0524384 33.9137905,13.9767658 33.9459668,15.1336426 L33.9459668,20.6930782 C33.9459668,23.1996445 34.1712003,23.2960509 36.358598,23.5531346 C36.4235354,23.5531346 36.4551266,23.9387602 36.358598,23.9066248 C35.4576639,23.7780829 34.138439,23.7459474 32.9163278,23.7459474" id="Fill-35" fill="#FFFFFF"></path>
                        <path d="M47.5239206,13.7197405 C46.5586341,12.7235411 45.1750568,11.888019 43.3731886,11.888019 C41.0565011,11.888019 39.5120427,13.5590632 39.5120427,17.061829 C39.5120427,20.9502203 42.0539638,22.8462128 44.3384751,22.8462128 C45.3359378,22.8462128 46.2690481,22.4284518 47.5239206,21.5286587 L47.5239206,13.7197405 Z M48.3926784,24.2601733 C47.8778589,24.2601733 47.5560968,23.0068901 47.5239206,22.2035035 C45.8507573,23.5531931 44.2419465,24.1959024 42.826193,24.1959024 C39.9309185,24.1959024 37.32406,21.5929296 37.32406,18.1222993 C37.32406,14.2981789 40.5738578,10.859684 44.7889422,10.859684 C45.8185811,10.859684 46.7838676,11.0203614 47.5239206,11.2131742 L47.5239206,5.20384206 C47.5239206,3.08290131 47.137806,2.69727572 45.4646427,3.24357864 C45.4324665,3.27571411 45.3037616,3.01863038 45.4002903,2.95435945 C46.6873389,2.2473792 48.5857357,1.25117976 49.6153746,0.28711578 C49.6475508,0.254980315 49.9049606,0.351386712 49.9049606,0.44779311 C49.7440795,1.05836696 49.6803121,3.88628796 49.6803121,5.07530019 L49.6803121,21.1751686 C49.6803121,22.7498064 50.2910752,22.9747547 52.2865856,22.4284518 C52.3181768,22.4284518 52.4468817,22.7176709 52.350353,22.7498064 C51.2563617,23.3282448 49.1327314,24.2601733 48.3926784,24.2601733 L48.3926784,24.2601733 Z" id="Fill-37" fill="#FFFFFF"></path>
                        <path d="M58.9781271,11.3418329 C57.3055488,11.3418329 55.9213865,12.7879289 55.5036807,15.2302243 L62.2922773,15.0695469 C62.2601011,13.3985027 61.0695811,11.3418329 58.9781271,11.3418329 M64.4486689,15.5515789 L55.4387433,15.7443917 C55.4071521,16.0978818 55.3743908,16.4835074 55.3743908,16.869133 C55.3743908,21.2074209 57.8203683,22.9427361 60.1686471,22.9427361 C61.648753,22.9427361 63.128859,22.3964331 64.2556116,21.560911 C64.2872028,21.5287756 64.4802601,21.7858593 64.4159076,21.8501302 C63.2897401,23.1676843 61.1345186,24.1960192 59.1068319,24.1960192 C55.5352719,24.1960192 53.0904645,21.560911 53.0904645,17.833197 C53.0904645,13.9769411 56.5011434,10.5705817 59.8152937,10.5705817 C62.9679779,10.5705817 64.5451975,12.9164707 64.5451975,14.7803277 C64.5451975,15.0374115 64.5124363,15.2944952 64.4486689,15.5515789" id="Fill-39" fill="#FFFFFF"></path>
                        <path d="M78.3163841,23.7461227 C77.0609266,23.7461227 76.0962252,23.7782582 75.1952911,23.9068 C75.0660012,23.9389355 75.1309387,23.5211745 75.1952911,23.5211745 C76.8678693,23.3604971 77.2223927,23.1355489 77.2223927,20.6932535 L77.2223927,15.8729336 C77.2223927,13.0450126 76.7397495,11.8560003 74.8729439,11.8560003 C73.843305,11.8560003 73.0716608,12.1130841 70.6578596,13.5913155 L70.6578596,20.6932535 C70.6578596,22.9748715 70.9474455,23.3604971 72.6855462,23.5211745 C72.7493137,23.5211745 72.8142511,23.9389355 72.6855462,23.9068 C72.0414369,23.8103936 70.6256834,23.7461227 69.7247493,23.7461227 C68.5026381,23.7461227 66.9903559,23.7782582 66.1210131,23.9068 C65.9928932,23.9389355 66.0572457,23.5211745 66.0894219,23.5211745 C68.3095808,23.2962262 68.5342293,23.1998198 68.5342293,20.6932535 L68.5342293,15.2944952 C68.5342293,13.141419 68.1481147,12.7557934 66.4755365,13.3342318 C66.410599,13.3342318 66.2824792,13.077148 66.3790078,13.0128771 C67.6982327,12.3058969 69.1783387,11.213291 70.2395688,10.2492271 C70.27233,10.2170916 70.4975635,10.3456334 70.4975635,10.4420398 C70.561916,10.9883428 70.6256834,12.3380323 70.6578596,13.077148 C73.3290706,11.1811556 74.8091765,10.5705817 76.2892825,10.5705817 C78.5416176,10.5705817 79.346023,12.0166777 79.346023,14.4589731 L79.346023,20.6932535 C79.346023,23.007007 79.4741429,23.3604971 81.7592393,23.5211745 C81.8235917,23.5211745 81.8557679,23.9389355 81.7592393,23.9068 C81.1157149,23.8103936 79.2173182,23.7461227 78.3163841,23.7461227" id="Fill-41" fill="#FFFFFF"></path>
                        <path d="M88.3228949,11.3418329 C86.6503167,11.3418329 85.2661543,12.7879289 84.8484485,15.2302243 L91.6370452,15.0695469 C91.604869,13.3985027 90.4143489,11.3418329 88.3228949,11.3418329 M93.7934367,15.5515789 L84.7835111,15.7443917 C84.7519199,16.0978818 84.7191587,16.4835074 84.7191587,16.869133 C84.7191587,21.2074209 87.1651361,22.9427361 89.5134149,22.9427361 C90.9935208,22.9427361 92.4736268,22.3964331 93.6003794,21.560911 C93.6319706,21.5287756 93.8250279,21.7858593 93.7606754,21.8501302 C92.6345079,23.1676843 90.4792864,24.1960192 88.4515997,24.1960192 C84.8800397,24.1960192 82.4352323,21.560911 82.4352323,17.833197 C82.4352323,13.9769411 85.8459112,10.5705817 89.1600615,10.5705817 C92.3127457,10.5705817 93.8899653,12.9164707 93.8899653,14.7803277 C93.8899653,15.0374115 93.8572041,15.2944952 93.7934367,15.5515789" id="Fill-43" fill="#FFFFFF"></path>
                        <path d="M104.700706,13.3985027 C104.218063,13.3985027 103.445834,12.4344387 102.512723,12.4344387 C101.77267,12.4344387 101.129731,12.7879289 100.035155,14.1376184 L100.035155,20.6932535 C100.035155,22.9427361 100.389093,23.4247681 103.284952,23.5533099 C103.317129,23.5533099 103.381481,23.9389355 103.252776,23.9068 C102.609252,23.8103936 100.002978,23.7461227 99.1026294,23.7461227 C97.8471719,23.7461227 96.367066,23.7782582 95.4661319,23.9068 C95.3696033,23.9389355 95.4017795,23.5533099 95.4661319,23.5533099 C97.6541146,23.2962262 97.8793481,23.1998198 97.8793481,20.6932535 L97.8793481,15.2623597 C97.8793481,13.141419 97.4932336,12.7557934 95.8200703,13.3342318 C95.7884791,13.3342318 95.6591892,13.1092835 95.7557179,13.0450126 C97.0427665,12.3058969 98.5872249,11.1811556 99.6174489,10.2170916 C99.64904,10.1849561 99.8742736,10.313498 99.9070348,10.3777689 C99.9708022,10.9240718 100.035155,12.3380323 100.035155,13.4949091 C101.934136,11.1490201 103.381481,10.2170916 104.15371,10.2170916 C104.990292,10.2170916 105.730345,11.3739684 105.730345,11.7274585 C105.730345,12.3058969 104.990292,13.3985027 104.700706,13.3985027" id="Fill-45" fill="#FFFFFF"></path>
                    </g>
                    <g id="Group-47" transform="translate(0.000000, 2.921406)" fill="#FFFFFF">
                        <path d="M11.2905173,27.6329365 C5.94985042,24.5082007 0.000175506634,20.8926686 0.000175506634,15.5809683 L0.000175506634,8.22428371 L0.000175506634,0.449253813 L22.5802741,0.449253813 L22.5802741,15.5809683 C22.5802741,20.8926686 16.6300142,24.5082007 11.2905173,27.6329365 Z M11.2905173,25.7192403 C15.9314978,23.0035013 21.1013382,19.8624056 21.1013382,15.2454156 L21.1013382,1.91737718 L1.47852639,1.91737718 L1.47852639,8.85221071 L1.47852639,15.2454156 C1.47852639,19.8624056 6.64953687,23.0035013 11.2905173,25.7192403 Z M5.56999556,8.26056757 L5.56999556,6.78759467 L17.0112731,6.78759467 L17.0112731,8.26056757 L5.56999556,8.26056757 Z M4.68871825,16.3039578 C4.30611378,16.3039578 3.69593572,16.3039578 3.42156035,16.3407675 C3.36715329,16.358296 3.39406431,16.1684046 3.42156035,16.1684046 C3.98727673,16.1035494 4.23357104,16.0860209 4.23357104,15.3293768 L4.23357104,13.0354888 C4.23357104,12.2794289 3.98727673,12.2513834 3.42156035,12.1882811 C3.39406431,12.1882811 3.36715329,12.0059853 3.42156035,12.0246823 C3.69593572,12.0609078 4.30611378,12.0609078 4.68871825,12.0609078 C4.96309362,12.0609078 5.56449636,12.0527278 5.75638361,12.0246823 C5.81020564,12.0059853 5.80201533,12.1882811 5.77334925,12.1882811 C5.18072185,12.2432035 4.97128393,12.3244186 4.97128393,13.0354888 L4.97128393,15.3293768 C4.97128393,16.040447 5.18072185,16.1128979 5.77334925,16.1684046 C5.80201533,16.1684046 5.81020564,16.358296 5.75638361,16.3407675 C5.56449636,16.3133063 4.96309362,16.3039578 4.68871825,16.3039578 Z M7.06852971,15.4739279 C7.06852971,14.8002517 7.5891994,14.2165548 8.46322244,13.8525476 C7.88054041,13.4791919 7.38795179,13.0701951 7.38795179,12.3865861 C7.38795179,11.4312863 8.16310609,10.7657901 9.14769831,10.7657901 C9.96848434,10.7657901 10.6424298,11.3483184 10.6424298,12.0956141 C10.6424298,12.7330649 10.2598254,13.161343 9.51216709,13.5615756 C10.1592015,13.9623925 10.7705497,14.4175475 10.7705497,15.2185971 C10.7705497,16.2025266 9.97667465,16.9761149 8.83763659,16.9761149 C7.88873072,16.9761149 7.06852971,16.3561926 7.06852971,15.4739279 Z M8.0443466,11.9857692 C8.0443466,12.6506812 8.6182533,13.0240369 9.23896176,13.3979769 C9.72160501,13.0976563 9.99539536,12.6693782 9.99539536,12.1417723 C9.99539536,11.4943887 9.56715917,11.0398179 8.98272208,11.0398179 C8.41876076,11.0398179 8.0443466,11.4219378 8.0443466,11.9857692 Z M7.77055625,15.4739279 C7.77055625,16.2930902 8.39067969,16.6939071 8.9464507,16.6939071 C9.70346932,16.6939071 10.1416509,16.2206393 10.1416509,15.6106497 C10.1416509,14.8277129 9.43962435,14.435076 8.75514847,14.0260791 C8.10752899,14.3445124 7.77055625,14.7727905 7.77055625,15.4739279 Z M15.3382853,16.3404754 C15.0463593,16.3404754 14.4268209,16.3036657 13.8517441,16.3036657 C13.0678145,16.3036657 12.5208188,16.3036657 11.9469121,16.3404754 C11.9006954,16.3404754 11.8281526,16.1400669 11.8737844,16.1126057 C13.4416436,15.2934435 14.2893407,14.5286194 14.2893407,13.5353414 C14.2893407,12.8441367 13.8886005,12.4532526 13.3515502,12.4532526 C12.9127836,12.4532526 12.6027219,12.634964 12.2844699,12.9621615 C12.2476135,12.9989712 12.1382144,12.8803621 12.1750708,12.8347882 C12.5763959,12.2884853 13.0678145,11.9238938 13.6510816,11.9238938 C14.4905883,11.9238938 15.0194483,12.5344677 15.0194483,13.2443693 C15.0194483,14.137151 14.0249107,15.0924508 13.1040859,15.639338 L14.3905495,15.639338 C15.2563822,15.639338 15.3926924,15.5668871 15.4476845,15.0199999 C15.4476845,15.0018872 15.6033004,14.9931229 15.6033004,15.0199999 C15.6307964,15.2385211 15.5570836,16.0495034 15.5208122,16.1850566 C15.4927312,16.285553 15.4476845,16.3404754 15.3382853,16.3404754 Z M17.8906198,16.3039578 C17.5080154,16.3039578 16.8966672,16.3039578 16.6240469,16.3407675 C16.5684698,16.358296 16.5959659,16.1684046 16.6240469,16.1684046 C17.1885933,16.1035494 17.4354726,16.0860209 17.4354726,15.3293768 L17.4354726,13.0354888 C17.4354726,12.2794289 17.1885933,12.2513834 16.6240469,12.1882811 C16.5959659,12.1882811 16.5684698,12.0059853 16.6240469,12.0246823 C16.8966672,12.0609078 17.5080154,12.0609078 17.8906198,12.0609078 C18.1644102,12.0609078 18.7663979,12.0527278 18.9577002,12.0246823 C19.0126922,12.0059853 19.0033319,12.1882811 18.9758358,12.1882811 C18.3837935,12.2432035 18.1737705,12.3244186 18.1737705,13.0354888 L18.1737705,15.3293768 C18.1737705,16.040447 18.3837935,16.1128979 18.9758358,16.1684046 C19.0033319,16.1684046 19.0126922,16.358296 18.9577002,16.3407675 C18.7663979,16.3133063 18.1644102,16.3039578 17.8906198,16.3039578 Z" id="Combined-Shape"></path>
                    </g>
                </g>
            </g>
        </g>
    </g>
</svg>
