<?xml version="1.0" encoding="UTF-8"?>
<svg width="13px" height="13px" viewBox="0 0 13 13" version="1.1" xmlns="http://www.w3.org/2000/svg" xmlns:xlink="http://www.w3.org/1999/xlink">
    <!-- Generator: Sketch 43.2 (39069) - http://www.bohemiancoding.com/sketch -->
    <title>PHONE</title>
    <desc>Created with Sketch.</desc>
    <defs></defs>
    <g id="Undergrad-Admissions-R2" stroke="none" stroke-width="1" fill="none" fill-rule="evenodd">
        <g id="Undergraduate-Admissions-Copy-4" transform="translate(-785.000000, -4753.000000)" fill="">
            <g id="Group-4" transform="translate(-1.000000, 4681.000000)">
                <path d="M799,73.5488281 C799,73.5170898 798.987305,73.4726562 798.968262,73.4472656 C798.955566,73.3837891 798.89209,73.3266602 798.834961,73.2949219 L795.616699,72.0126953 C795.477051,71.9682617 795.331055,72.0317383 795.267578,72.1523438 L793.490234,75.7006836 C793.433105,75.8085938 793.464844,75.9291992 793.541016,76.0180664 L795.267578,77.7446289 C794.378906,79.1791992 793.179199,80.3979492 791.744629,81.2866211 L790.018066,79.5410156 C789.929199,79.4648438 789.808594,79.4331055 789.700684,79.4902344 L786.152344,81.2675781 C786.031738,81.3310547 785.968262,81.4770508 786.012695,81.6166992 L787.294922,84.8349609 C787.32666,84.8920898 787.371094,84.9555664 787.447266,84.9873047 C787.472656,85 787.51709,85 787.548828,85 C787.580566,85 787.612305,85 787.656738,84.9873047 C793.553711,84.2446289 798.244629,79.5664062 798.987305,73.6567383 C799,73.6123047 799,73.5805664 799,73.5488281 Z" id="PHONE"></path>
            </g>
        </g>
    </g>
</svg>