<?xml version="1.0" encoding="UTF-8"?>
<svg width="19px" height="14px" viewBox="0 0 19 14" version="1.1" xmlns="http://www.w3.org/2000/svg" xmlns:xlink="http://www.w3.org/1999/xlink">
    <!-- Generator: Sketch 44.1 (41455) - http://www.bohemiancoding.com/sketch -->
    <title>"</title>
    <desc>Created with Sketch.</desc>
    <defs></defs>
    <g id="Undergrad-(Approved)" stroke="none" stroke-width="1" fill="none" fill-rule="evenodd">
        <g id="Undergraduate-Admissions" transform="translate(-75.000000, -5297.000000)" fill="">
            <g id="Testimonial" transform="translate(0.000000, 5201.000000)">
                <path d="M87.784,101.88 C87.784,100.408 89.32,98.296 93.416,98.104 C93.608,98.104 93.736,96.888 93.352,96.888 C88.424,97.208 85.032,100.088 85.032,104.184 C85.032,107.64 87.336,109.496 89.64,109.496 C91.048,109.496 92.328,108.6 92.328,107.256 C92.328,106.04 91.496,105.464 90.216,104.824 C88.488,103.928 87.784,103.096 87.784,101.88 Z M78.12,101.88 C78.12,100.408 79.656,98.296 83.752,98.104 C83.944,98.104 84.072,96.888 83.688,96.888 C78.76,97.208 75.368,100.088 75.368,104.184 C75.368,107.64 77.672,109.496 79.976,109.496 C81.384,109.496 82.6,108.6 82.6,107.256 C82.6,106.04 81.896,105.528 80.488,104.824 C78.76,103.928 78.12,103.096 78.12,101.88 Z" id="&quot;"></path>
            </g>
        </g>
    </g>
</svg>
