<?xml version="1.0" encoding="UTF-8"?>
<svg width="17px" height="17px" viewBox="0 0 17 17" version="1.1" xmlns="http://www.w3.org/2000/svg" xmlns:xlink="http://www.w3.org/1999/xlink">
    <!-- Generator: Sketch 43.2 (39069) - http://www.bohemiancoding.com/sketch -->
    <title>Search</title>
    <desc>Created with Sketch.</desc>
    <defs></defs>
    <g id="Undergrad-Admissions-R2" stroke="none" stroke-width="1" fill="none" fill-rule="evenodd">
        <g id="Undergraduate-Admissions-Copy-4" transform="translate(-1310.000000, -105.000000)" fill="">
            <path d="M1320.625,105 C1324.14453,105 1327,107.855469 1327,111.375 C1327,114.894531 1324.14453,117.75 1320.625,117.75 C1319.36328,117.75 1318.20117,117.393066 1317.22168,116.762207 L1312.42383,121.584961 C1312.1416,121.858887 1311.76807,122 1311.41943,122 C1311.0459,122 1310.68896,121.858887 1310.41504,121.584961 C1309.85889,121.037109 1309.85889,120.132324 1310.41504,119.576172 L1315.23779,114.77832 C1314.60693,113.798828 1314.25,112.636719 1314.25,111.375 C1314.25,107.855469 1317.10547,105 1320.625,105 Z M1320.625,115.625 C1322.96582,115.625 1324.875,113.71582 1324.875,111.375 C1324.875,109.03418 1322.96582,107.125 1320.625,107.125 C1318.28418,107.125 1316.375,109.03418 1316.375,111.375 C1316.375,113.71582 1318.28418,115.625 1320.625,115.625 Z" id="Search"></path>
        </g>
    </g>
</svg>
