<?xml version="1.0" encoding="UTF-8"?>
<svg width="18px" height="16px" viewBox="0 0 18 16" version="1.1" xmlns="http://www.w3.org/2000/svg" xmlns:xlink="http://www.w3.org/1999/xlink">
    <!-- Generator: Sketch 43.2 (39069) - http://www.bohemiancoding.com/sketch -->
    <title>twitter</title>
    <desc>Created with Sketch.</desc>
    <defs></defs>
    <g id="Undergrad-Admissions-R2" stroke="none" stroke-width="1" fill="none" fill-rule="evenodd">
        <g id="Undergraduate-Admissions-Copy-4" transform="translate(-939.000000, -5086.000000)" fill="">
            <g id="Footer" transform="translate(-20.000000, 4936.000000)">
                <path d="M977,152.225586 C976.332031,152.524414 975.628906,152.726562 974.873047,152.814453 C975.646484,152.357422 976.226562,151.62793 976.499023,150.766602 C975.795898,151.188477 974.996094,151.496094 974.169922,151.663086 C973.475586,150.959961 972.517578,150.50293 971.454102,150.50293 C969.415039,150.50293 967.771484,152.146484 967.771484,154.185547 C967.771484,154.475586 967.789062,154.774414 967.850586,155.038086 C964.791992,154.871094 962.084961,153.482422 960.248047,151.25 C959.94043,151.794922 959.74707,152.357422 959.74707,153.042969 C959.74707,154.308594 960.397461,155.433594 961.399414,156.101562 C960.792969,156.083984 960.230469,155.916992 959.729492,155.644531 L959.729492,155.688477 C959.729492,157.481445 961.003906,158.975586 962.691406,159.30957 C962.375,159.397461 962.041016,159.441406 961.707031,159.441406 C961.478516,159.441406 961.25,159.415039 961.021484,159.371094 C961.478516,160.830078 962.858398,161.919922 964.458008,161.9375 C963.209961,162.939453 961.601562,163.686523 959.878906,163.686523 C959.580078,163.686523 959.290039,163.668945 959,163.625 C960.625977,164.670898 962.585938,165.12793 964.668945,165.12793 C971.454102,165.12793 975.163086,159.50293 975.163086,154.625 L975.163086,154.141602 C975.875,153.623047 976.499023,152.981445 977,152.225586 Z" id="twitter"></path>
            </g>
        </g>
    </g>
</svg>