<?xml version="1.0" encoding="UTF-8"?>
<svg width="16px" height="10px" viewBox="0 0 16 10" version="1.1" xmlns="http://www.w3.org/2000/svg" xmlns:xlink="http://www.w3.org/1999/xlink">
    <!-- Generator: Sketch 43.2 (39069) - http://www.bohemiancoding.com/sketch -->
    <title>video</title>
    <desc>Created with Sketch.</desc>
    <defs></defs>
    <g id="Admissions-R2" stroke="none" stroke-width="1" fill="none" fill-rule="evenodd">
        <g id="Admissions-Copy-3" transform="translate(-1294.000000, -4033.000000)" fill="">
            <path d="M1310,4033.33594 C1310,4033.20312 1309.92969,4033.07031 1309.79688,4033.01562 C1309.66406,4032.98438 1309.51562,4033 1309.42969,4033.09375 L1306,4036.53906 L1306,4034 C1306,4033.44531 1305.55469,4033 1305,4033 L1295,4033 C1294.44531,4033 1294,4033.44531 1294,4034 L1294,4042 C1294,4042.55469 1294.44531,4043 1295,4043 L1305,4043 C1305.55469,4043 1306,4042.55469 1306,4042 L1306,4039.46094 L1309.42969,4042.90625 C1309.5,4042.96094 1309.57031,4043 1309.66406,4043 C1309.70312,4043 1309.75781,4043 1309.79688,4042.98438 C1309.92969,4042.92969 1310,4042.79688 1310,4042.66406 L1310,4033.33594 Z" id="video"></path>
        </g>
    </g>
</svg>