<?xml version="1.0" encoding="UTF-8"?>
<svg width="22px" height="22px" viewBox="0 0 22 22" version="1.1" xmlns="http://www.w3.org/2000/svg" xmlns:xlink="http://www.w3.org/1999/xlink">
    <!-- Generator: Sketch 43.2 (39069) - http://www.bohemiancoding.com/sketch -->
    <title>face_white</title>
    <desc>Created with Sketch.</desc>
    <defs>
        <polygon id="path-1" points="16.3485332 3.74758621 0.742071925 3.74758621 0.742071925 0.206004898 16.3485332 0.206004898 16.3485332 3.74758621"></polygon>
    </defs>
    <g id="Symbols" stroke="none" stroke-width="1" fill="none" fill-rule="evenodd">
        <g id="Footer" transform="translate(-939.000000, -307.000000)">
            <g id="Connect">
                <g transform="translate(938.000000, 60.000000)">
                    <g id="face_white" transform="translate(1.000000, 247.000000)">
                        <path d="M2.74089655,10.6927586 C3.81206897,12.8646897 6.39517241,13.2318621 11.0766207,13.2318621 C17.2578621,13.2318621 19.6224828,12.5893103 19.6224828,7.9382069 C19.6224828,6.83744828 19.4995862,6.20475862 19.1938621,5.50151724 C18.4595172,3.64593103 15.7884138,2.9002069 11.0766207,2.9002069 C4.89537931,2.9002069 2.22124138,3.67475862 2.22124138,7.9382069 C2.22124138,9.10117241 2.37372414,9.98875862 2.74089655,10.6927586 Z M11.0766207,0.197241379 C16.0948966,0.197241379 19.2462069,0.870137931 20.7148966,3.25675862 C21.4492414,4.38862069 21.786069,5.91951724 21.786069,7.9382069 C21.786069,14.2112414 18.5118621,15.679931 11.0766207,15.679931 C5.84441379,15.679931 2.50875862,14.975931 0.97937931,12.3753793 C0.305724138,11.2738621 0,9.80517241 0,7.9382069 C0,1.69627586 3.61027586,0.197241379 11.0766207,0.197241379 L11.0766207,0.197241379 Z" id="Fill-1" fill="#FFFFFF"></path>
                        <g id="Group-5" transform="translate(0.758621, 18.206897)">
                            <mask id="mask-2" fill="white">
                                <use xlink:href="#path-1"></use>
                            </mask>
                            <g id="Clip-3"></g>
                            <path d="M0.744206897,0.680482759 C0.719172414,0.441517241 0.917172414,0.229862069 1.18724138,0.207862069 C1.45655172,0.185862069 1.69551724,0.361862069 1.72055172,0.600827586 C1.74482759,0.839034483 1.54682759,1.05068966 1.27751724,1.07268966 C1.00744828,1.09468966 0.768482759,0.919448276 0.744206897,0.680482759" id="Fill-2" fill="#FFFFFF" mask="url(#mask-2)"></path>
                            <path d="M16.2246207,1.92158621 C15.1011034,2.55048276 13.8615172,3.13462069 12.3230345,3.49268966 C10.597931,3.894 7.91696552,3.81737931 7.22889655,3.69524138 C4.39924138,3.19455172 2.81827586,2.35855172 0.861793103,0.924758621 C0.587931034,0.723724138 1.13110345,0.125172414 1.40117241,0.232896552 C2.66882759,0.738137931 5.97413793,1.93068966 9.47593103,1.75165517 C10.4682069,1.70082759 11.902,1.57717241 12.5066207,1.49675862 C14.2802759,1.26310345 15.0927586,1.15917241 15.8566897,1.04234483 C16.0417931,1.01351724 16.0782069,1.13186207 16.1548276,1.17586207 C16.1965517,1.20013793 16.5045517,1.73193103 16.2466207,1.87303448" id="Fill-4" fill="#FFFFFF" mask="url(#mask-2)"></path>
                        </g>
                        <path d="M16.1775862,19.7605517 C16.1502759,19.4988276 16.3672414,19.2674483 16.6631034,19.2431724 C16.9589655,19.2188966 17.2206897,19.4115862 17.248,19.6733103 C17.2753103,19.9357931 17.0575862,20.1671724 16.7617241,20.1914483 C16.4658621,20.2157241 16.2048966,20.0230345 16.1775862,19.7605517" id="Fill-6" fill="#FFFFFF"></path>
                    </g>
                </g>
            </g>
        </g>
    </g>
</svg>